<?xml version="1.0" encoding="utf-8"?>
<!-- Generator: Adobe Illustrator 22.1.0, SVG Export Plug-In . SVG Version: 6.00 Build 0)  -->
<svg version="1.1" id="Capa_1" xmlns="http://www.w3.org/2000/svg" xmlns:xlink="http://www.w3.org/1999/xlink" x="0px" y="0px"
	 viewBox="0 0 250 140.5" style="enable-background:new 0 0 250 140.5;" xml:space="preserve">
<style type="text/css">
	.st0{clip-path:url(#SVGID_2_);fill:#CB1931;}
	.st1{fill:#FFFFFF;}
	.st2{fill:#CB1931;}
	.st3{fill:#FFFFFF;stroke:#000000;stroke-miterlimit:10;}
</style>
<g>
	<g>
		<defs>
			<rect id="SVGID_1_" x="3.3" y="56.1" width="243.7" height="82.4"/>
		</defs>
		<clipPath id="SVGID_2_">
			<use xlink:href="#SVGID_1_"  style="overflow:visible;"/>
		</clipPath>
		<ellipse class="st0" cx="122.1" cy="86.6" rx="18.4" ry="12.4"/>
		<polygon class="st0" points="222.5,153.8 235.5,141.2 137.8,91.4 134.6,94.1 		"/>
		<polygon class="st0" points="198.2,166.4 177.9,173.3 127.7,97 133,95.4 		"/>
		<polygon class="st0" points="136.5,180.6 113.7,180.6 119.9,97.3 125.6,97.5 		"/>
		<polygon class="st0" points="261.7,113.3 255.1,128.2 137.8,89.1 140.1,85.9 		"/>
		<polygon class="st0" points="261.7,85.7 260.7,101.2 136.7,83.2 135.7,79.9 		"/>
		<polygon class="st0" points="32.5,159.1 17.7,147.4 107.4,91.3 111,93.7 		"/>
		<polygon class="st0" points="57.6,169.7 78.8,175.3 118.1,96.1 112.7,94.9 		"/>
		<polygon class="st0" points="-11.4,119.7 -2.9,134.2 109,88.5 106.4,85.5 		"/>
		<polygon class="st0" points="-15.8,92.8 -12.8,108.2 108.5,83.3 109,79.9 		"/>
	</g>
</g>
<g>
	<g>
		<g>
			<path d="M75.9,137.1l-3.2,0c10.2,0,21,0.1,31.5,0.1c-23-0.5-50.2-0.9-68,0.1c-1-0.3-7-0.5-12.9-0.6s-11.6-0.1-11.8-0.1
				c-1.4,0-2.7,0.1-4.1,0.1l-2.1,0c-0.1,0-0.1,0-0.1,0l0,0l-0.1,0l-0.2,0l0-0.2l0-0.1l0,0l0-0.2l0-0.7c0-1,0-1.9,0-2.9
				c0,1,0,1.9,0,2.9l0,0.7l0,0.2l0,0.1l0,0.2l0.3,0c0.7,0,1.3,0,2,0c-0.7,0-1.3,0-2,0l-0.3,0l0-0.2l0-0.1l0-0.2l0-0.7
				c0-1,0-1.9,0-2.9c-0.4-30-0.2-62.7,0-96.4c0-7.2,0.1-19.4,0.1-32.8c19.5,0.1,41.5,0.2,52.6,0.2c2.8,0,5.6,0,8.4,0.1
				c-4.7,0-4.7,0-9.3-0.1c11.7-0.1,22.3-0.3,32.6-0.4C87.3,3.2,87,3.1,82.7,3L88,3c4.8-0.2,15.8-0.2,21-0.3c-1.1,0.1,3,0.1,6.6,0.2
				l-1.4-0.1c13.7,0,29.5,0,41.7,0c1.7,0,3,0,3.7,0.1l11.7-0.1c-0.9,0.2,9.7,0.1,4.1,0.2c8.8-0.2,17.6-0.1,26-0.3
				c14.5,0,29.6-0.1,44.7-0.1c0.1,15.3,0.2,30.7,0.3,45.9l0.1-0.8c0.1,10.8,0.4,20.3,0.3,33.4c0.2,9.4,0.3,22.7,0.6,26.4
				c0,10.8,0.2,15.1,0.3,25.7c0.2-2.7,0.2,10.3,0.3,5.1c0.2-7,0-7.4,0.2-13.4l-0.1,0.2c0.2-27.9,0.4-55.8,0.5-84
				c0-6.4,0-12.9-0.1-19.5c0-7.1,0-14.3,0-21.6c-7,0-14,0-20.9,0c-21.1,0.1-43.9,0.2-62,0.3c-4.3,0-7.4-0.1-11.1-0.2
				c-16.6,0-37.8,0.1-56.6,0.1c0.4,0,0.7,0,0.9,0c-10,0-17.4-0.1-27.2-0.1c0,0-1.5,0-2.2,0.1C67.7,0.2,12,0.8,8.6,0.7
				c-1,0-2.1,0-3.1,0c-1.1,0-2.1,0-3.2,0c0,5.3-0.1,10.6-0.1,15.9C2.1,21.6,2,26.6,2,31.4C1.9,41.2,1.8,50.5,1.8,59
				c0.1,3.8,0.2,8.1,0.3,11.4c-0.1,3.1,0.1,3.7,0.1,7.5C1.7,87.4,1.9,93,2.1,88.1c0,7.9,0,15.7,0,22.7c0,3.2,0.1,6.5,0.1,9.7
				c0,2.8,0,4.3-0.1,5.7c0,3.5,0,4.8,0,6.1c0,0.6,0,1.3,0,2.2c0,1.2,0,2.9,0,5.2c0.1,0,0.2,0,0.3,0c0.4,0,1.1,0,2.2,0
				c0.7,0,1.6,0,2.7,0c1.9,0,4.2-0.1,6.6-0.1c4.7-0.1,9.4-0.2,10.5-0.1l-1.2,0c8.6,0,14.3,0.3,22.7,0.3c23.4,0,48.9,0,70.5,0
				c0.2-0.2-4.8,0-5-0.2c12.8,0.1,25.6,0.2,38.5,0.2c2.3,0,5.2,0.1,6.2,0.2c4.1,0.1,2.4-0.1,5.4-0.1l0.4,0.1
				c4.4-0.1,6.4,0.2,10.6,0.1c0.2-0.1,1.7-0.1,3.2-0.1c0.1,0.1,4.5,0,4.3,0.1l0,0c0.9,0,1.5,0,2.6,0c1.7,0,17.5-0.5,19.2-0.5l0.8,0
				c2.4,0,3.4-0.1,2-0.1l2.9,0l-0.3,0l2.9,0c0.5,0,1.1,0.1,0.3,0.1c1.6-0.1,3.5-0.1,5.1-0.1c-4.6-0.1-10.2-0.2-15-0.4
				c2-0.1,5.5,0,7.6,0c2.5,0.1,7.8,0.2,11.8,0.2c0.9,0,1.5-0.2,3.5-0.1c1,0.1,2.3,0,4,0.1c-1.9,0.1-3.8,0-5.8,0
				c0.3,0.1,4.8,0.1,6.3,0.1c0.7,0,4.5,0,6.9,0c-1,0.1,1.9,0.1,3.3,0.2c1.6,0,2.6,0,2-0.1c0.5-0.1-6.4-0.1-4.2-0.2
				c0.6,0.1,3.7,0,5.4,0c0-0.1-1.2-0.1-0.1-0.1c1.9,0,3.9-0.1,5,0c-0.4,0-1.1,0-1.7,0c2.5,0-13.3,0.5-10.1,0.5
				c-0.8-0.1,14-0.5,12.3-0.5c-1.5,0,1.1-0.1-0.5-0.2l-1.7,0.1c-2.1,0-3-0.2-2.2-0.2c3.5,0-10.1,0.5-7,0.4l-1.2,0
				c1.3-0.1,4.7-0.1,6,0c0-0.1,1.7-0.1,3.2-0.1l0.5,0c1.5,0,3.6,0,2.6-0.1c-8.7,0,5.7-0.8-2.7-0.8c3.5,0.2-1.2,0.2-4.9,0.2
				c-0.4-0.1-2-0.1-4.7-0.2c-2.3,0-1.4,0.1-1.8,0.1c-1.3,0-3.7-0.1-3.4-0.2c-1.8,0.1-2.9-0.1-5,0c-1.9,0,0.1,0-1.2,0.1
				c-2.9,0-6.8,0-9.1,0c-0.9-0.1-3.6-0.2-1.6-0.4c4.3,0-1.6,0.2,2.9,0.2c-1.9-0.2,4-0.1,4.8-0.2c-1.4-0.1-4.3-0.1-6.8-0.1l0.5,0
				c-2.1,0-6.4,0.1-8.7,0c0.5-0.1-0.5-0.1,1.1-0.1l-2.9,0c-0.4,0-0.8,0,0.1,0.1c-1.4,0.1-2.8,0-3.9,0c-0.3-0.1-15.7,0.3-15.2,0.3
				c-2.1,0-2.6-0.1-4.7,0c0,0,0.3,0,0.8,0c0.5,0,1.3,0,2.2,0c1.8,0,4.3-0.1,6.7-0.1c4.8-0.1,9.2-0.1,7.8-0.1
				c-1.8-0.1-24.1,0.4-25.4,0.2c-1.6,0-3.5,0-3.1,0.1c-2.7,0,0.8-0.1-1.1-0.2c0,0,0.2,0-0.4,0l-1.8-0.1c-4.1,0.1-10.2,0-14.5,0.1
				c1.3-0.1,2.7-0.2,5.5-0.3l0.5,0c0.4,0,2.7,0,2.6-0.1c-2.6,0-4.9,0-7.7,0c-0.5,0-1.1,0-1.5-0.1c0,0,0.1,0,0,0
				c-0.9,0-0.8-0.1-0.5-0.1c0,0,0.1,0,0.2,0c-1.7-0.2-10.4,0.1-15.2,0c-1.4,0-0.1,0-1.9,0.1c-4.9-0.1-8.3-0.1-13.5-0.2
				c-1.6,0.1-1.8,0.1,0.2,0.2l-3.9,0c3.5-0.2-7.3-0.2-3.4-0.5c-1.1-0.1-3.5-0.1-5.7,0c-0.2,0.1-0.6,0.2-3.3,0.2
				c-3.8-0.1-2.9-0.1-6.1-0.1c-0.7-0.1,0.4-0.1,0.3-0.2c-4.9,0.1-4.3-0.2-8.9-0.2c-2.9,0-8.6,0-8.7,0.2
				C75.5,137.3,75.5,137.2,75.9,137.1z"/>
		</g>
	</g>
</g>
<g>
	<path class="st1" d="M195.4,21.5c1.4-1.6,3.3-3.1,5.9-3.4c1.3-0.1,2.6,0.2,3.8,0.9c0.6,0.4,1.1,0.8,1.5,1.3
		c0.4,0.5,0.8,1.1,1.1,1.7c0.5,1.2,0.8,2.5,0.7,3.9c-0.1,0.7-0.3,1.4-0.7,2.1c-0.2,0.3-0.5,0.7-0.8,1c-0.2,0.1-0.3,0.3-0.5,0.4
		c-0.1,0.1-0.3,0.2-0.4,0.2c-0.6,0.3-1.3,0.6-2.1,0.6c-0.8,0.1-1.8-0.3-2.3-1c-0.5-0.6-0.7-1.3-0.8-2c0-0.3,0-0.6,0.1-1
		c0-0.2,0.1-0.3,0.2-0.5c0.1-0.1,0.2-0.3,0.4-0.3c-0.1,0.2,0.1,0.5,0.2,0.7c0.1,0.2,0.3,0.4,0.4,0.6c0.3,0.4,0.6,0.7,0.9,0.8
		c0.3,0.1,0.4,0,0.7-0.1c0.2-0.1,0.6-0.3,0.9-0.5l0.3-0.2c0,0,0.1-0.1,0.1-0.1c0.1-0.1,0.1-0.2,0.2-0.3c0.1-0.2,0.2-0.6,0.3-1
		c0.1-0.8-0.1-1.6-0.4-2.4c-0.6-1.6-1.9-2.8-3.7-3C199.4,19.9,197.4,20.6,195.4,21.5z"/>
</g>
<g>
	<path class="st1" d="M220.3,25.5c-0.7,0.7-1.5,1.1-2.2,1.6c-0.4,0.2-0.7,0.4-0.9,0.6c-0.3,0.2-0.4,0.4-0.5,0.6
		c-0.1,0.1-0.1,0.3-0.1,0.4c0,0.1-0.1,0.2-0.1,0.3c0,0.2,0,0.3,0.2,0.4c0.4,0.4,1.2,0.6,2.2,0.4c-0.5,0.9-1.6,1.4-2.8,1
		c-0.6-0.2-1.2-0.9-1.3-1.6c-0.1-0.4,0-0.7,0-1c0-0.3,0.1-0.5,0.2-0.8c0.2-0.6,0.7-1.1,1.2-1.4c0.5-0.3,1-0.4,1.4-0.5
		C218.5,25.4,219.4,25.3,220.3,25.5z"/>
</g>
<g>
	<path class="st1" d="M174.7,27.4c-0.1-0.4-0.3-0.8-0.3-1.2c-0.1-0.4,0.1-1,0.6-1.4c0.4-0.3,0.9-0.5,1.3-0.6
		c0.2-0.1,0.4-0.1,0.7-0.1c0.2,0,0.5-0.1,0.7-0.1c1,0,2.1,0.5,2.7,1.5c0.3,0.5,0.4,1.2,0.2,1.7c-0.2,0.6-0.7,0.9-1.1,1
		c0.1-0.5,0-0.9-0.1-1.1c-0.1-0.3-0.3-0.4-0.5-0.6c-0.4-0.3-0.8-0.6-1.4-0.9c-0.3-0.2-0.7-0.2-1-0.2c-0.4,0-0.7,0-1,0.1
		c-0.3,0.1-0.5,0.3-0.6,0.6C174.8,26.6,174.8,27,174.7,27.4z"/>
</g>
<g>
	<ellipse class="st2" cx="127.2" cy="70.5" rx="40.2" ry="38.7"/>
	<g>
		<g>
			<path class="st2" d="M108.4,28.2c1-0.4,2-0.7,3-1.1l1.5-0.5c0.5-0.2,1-0.3,1.6-0.4c-8.9,2-17.4,6.9-23.8,13.9
				c-3.2,3.5-5.9,7.5-7.9,11.9c-2,4.4-3.3,9.1-3.9,13.9c-0.5,4.8-0.3,9.6,0.5,14.3c1,4.7,2.6,9.2,4.8,13.4c2.3,4.1,5.1,7.9,8.3,11.3
				c3.3,3.3,6.9,6.1,10.8,8.5c1,0.6,2.4,1.5,3.9,2.4c1.5,0.8,3.1,1.5,4.1,2.1c8.7,3.2,19.5,3.9,29.6,1.1c5-1.4,9.9-3.5,14.2-6.3
				c4.2-2.8,8-6.1,11-9.7c0.8-0.9,1.4-1.8,2-2.7c0.6-0.9,1.1-1.8,1.5-2.7c0.8-1.8,1.4-3.4,1.7-4.9c0.3-1.4,0.5-2.6,0.6-3.4
				c0-0.8,0-1.3,0-1.3c0.3-2.3,0.1-4.6-1.1-2.7c-0.2,0.5-0.5,1.1-0.7,1.7c-0.3,0.6-0.6,1.3-0.9,2c-0.8,1.4-1.5,2.9-2.4,4.2
				c-1.7,2.6-3.6,4.4-4,4.1c-0.1-0.1,0.2-0.5,0.6-1.1c0.2-0.3,0.5-0.7,0.8-1c0.3-0.4,0.5-0.8,0.8-1.2c-0.4-0.3-0.2-2,0-3.7
				c0.1-0.9,0.2-1.8,0.4-2.6c0.1-0.4,0.2-0.8,0.3-1.1c0.1-0.3,0.1-0.6,0.2-0.8c0-0.5,0.2-1.5,0.5-2.9c0.1-0.7,0.1-1.4,0.2-2.2
				c0.1-0.8,0.2-1.6,0.2-2.4c0.1-3.2-0.4-6.4-0.6-7.2c-0.4-2.8-1.5,0.2-2.9,3.9c-0.4,0.9-0.9,1.9-1.3,2.9c-0.5,1-1.1,1.9-1.6,2.9
				c-0.6,0.9-1.2,1.8-1.7,2.6c-0.5,0.8-1.1,1.5-1.5,2.1c-1.9,2.4-1.1-0.6-1.8-1c-0.2,0.7-0.6,1.2-0.9,1.6c-0.3,0.5-0.7,0.9-1,1.3
				c-0.3,0.4-0.7,0.8-1.1,1.2c-0.4,0.4-0.7,0.9-1.2,1.5c0,0-0.5,0.3-1.1,0.9c-0.3,0.3-0.6,0.7-1.1,1c-0.4,0.3-0.9,0.7-1.4,1.1
				c-0.5,0.4-1.1,0.8-1.6,1.2l-0.9,0.6c-0.3,0.2-0.6,0.4-0.9,0.5c-0.6,0.3-1.2,0.7-1.7,1c-0.5,0.3-1.1,0.5-1.6,0.8
				c0,0-0.3,0.2-1.1,0.6c-0.4,0.2-0.9,0.4-1.6,0.7c-0.7,0.2-1.5,0.6-2.5,0.8c-1.4,0.3-1.3,0.6-1.3,0.8c-0.1-0.2-0.1-0.2-0.1-0.5
				c-0.6,0.5-1.7,0.6-2.8,0.7c-1.1,0.2-2.1,0.1-2.8,0.3c0-0.3,0-0.3,0-0.5c-1.4,0.4-2.8,0.2-4.2,0.2c-0.7,0-1.4-0.2-2.1-0.3
				c-0.7-0.1-1.4-0.2-2.1-0.3c0.1-0.3,0.1-0.3,0.1-0.5c-1.3-0.3-2.7-0.7-2.6-1c0.1-0.2,0.1-0.2,0.2-0.5c-0.6-0.4-1.6-0.6-2.4-0.9
				c-0.8-0.3-1.4-0.6-1.3-0.8c-0.1,0.2-0.1,0.2-0.2,0.5c-1.3-0.5-2.3-1.3-3.4-1.9c-0.5-0.3-0.9-0.7-1.4-1.1
				c-0.4-0.4-0.9-0.7-1.3-1.1c-1.6-1.5-3-3-4.1-4.6c-1.5-2.2-2.7-4.7-3.7-7.3l-0.4-1l-0.2-0.5L99.5,78c-0.2-0.7-0.3-1.4-0.5-2.1
				c-0.1-0.7-0.2-1.4-0.3-2.1l-0.1-0.5l0-0.5l-0.1-1.1c-0.1-2.9,0-5.9,0.9-8.8c0.8-2.9,2-5.6,3.7-8.1c0.8-1,1.2-2.4,0-1.7l0.6-0.8
				l0.7-0.7c0.5-0.5,0.9-1,1.4-1.5c1-0.9,1.2-1.3,1.3-1.7c0.1-0.4,0.3-0.8,1.4-1.6c1.1-1,2.3-1.6,3.5-2.4c0.6-0.3,1.3-0.6,1.9-1
				c0.3-0.2,0.6-0.3,1-0.5l1-0.4c2.6-1.2,5.5-1.7,8.4-2.1c5.8-0.5,11.7,0.4,16.9,3c1.3,0.5,2.5,1.4,3.8,2.1l1.7,1.3
				c0.3,0.2,0.6,0.4,0.9,0.6l0.8,0.7c2.2,1.8,4,4.1,5.6,6.4c1.6,2.3,2.7,5,3.6,7.6l0.6,2c0.2,0.7,0.3,1.4,0.4,2.1l0.2,1
				c0.1,0.3,0.1,0.7,0.1,1.1l0.2,2.1c0-0.7,0-1.4,0-2.1c0-0.3,0-0.7,0-1c0-0.3-0.1-0.7-0.1-1c-0.1-0.6-0.1-1.3-0.2-1.9
				c-0.1-0.6-0.3-1.2-0.4-1.9c-0.2-1.3-0.7-2.4-1.1-3.7c-0.2-0.6-0.6-1.2-0.9-1.8c-0.3-0.6-0.6-1.3-1-1.8c0.2-0.1,0.7-0.4-0.1-1.6
				c-2.3-3.8-5.9-7.3-9.6-9.6c-0.9-0.6-1.8-1.1-2.7-1.6c-0.9-0.4-1.8-0.9-2.5-1.3c-0.8-0.4-1.6-0.7-2.3-1c-0.3-0.2-0.7-0.3-1-0.5
				c-0.3-0.1-0.6-0.3-0.9-0.4c-1.4-0.6-2.8-1.9-7.6-2.2c0.8,0.1,1.6,0,2.4,0.1l2.4,0.3c0-0.3,0.1-0.8,0.1-0.8
				c-0.8-0.1-1.6-0.3-2.5-0.5c-0.9-0.1-1.7-0.2-2.6-0.3c-0.4,0-0.9-0.1-1.4-0.1c-0.5,0-0.9,0-1.4,0c-0.9,0-1.8,0-2.8,0.1
				c-3.7,0.3-7.3,1.2-10.5,2.3c0,0-0.2-0.5-0.3-0.7l-3.1,1.4c-0.5,0-0.6-0.1-0.5-0.4c0.1-0.3,0.5-0.6,1.1-1c0.6-0.4,1.4-0.9,2.4-1.4
				c1-0.4,2.2-0.9,3.5-1.4c1.3-0.3,2.7-0.8,4.2-1.1c0.7-0.1,1.5-0.2,2.2-0.4c0.4-0.1,0.8-0.1,1.1-0.2c0.4,0,0.8,0,1.1-0.1
				c1.5-0.1,3-0.2,4.3-0.1c1.4,0,2.6,0.1,3.7,0.2c0-0.3,0.1-0.8,0.1-1c-1.2-0.2-2.4-0.2-3.6-0.3l0-0.5c5.5,0.2,10.5,1.5,15.1,3.5
				c4.6,2.1,8.9,4.9,12.7,8.9c-0.3-0.3-0.7-0.8-1.2-1.2c-0.5-0.4-1-0.9-1.5-1.3c-0.5-0.4-1-0.9-1.5-1.3c-0.5-0.4-1-0.7-1.4-1
				c0.1-0.2,0.3-0.4-1.2-1.5c3.1,2.1,6.3,4.8,9,8c2.7,3.2,4.8,6.8,6.5,10.2c0.5,0.8,0.7,0.7,0.6-0.2c0-0.2-0.1-0.6-0.1-0.9
				c-0.1-0.4-0.2-0.7-0.4-1.2c-0.2-0.5-0.4-1-0.6-1.5c-0.2-0.6-0.5-1.2-0.9-1.8c-1.5-2.5-3-4.4-4.5-6.3c-0.8-0.9-1.6-1.8-2.5-2.7
				c-1-0.8-1.9-1.7-3.1-2.7l0.3-0.4c1.5,1.3,3.3,2.9,4.9,4.7c0.4,0.5,0.8,0.9,1.2,1.4c0.4,0.5,0.7,0.9,1.1,1.4
				c0.4,0.5,0.7,0.9,1.1,1.3c0.3,0.4,0.6,0.9,0.9,1.3c0.6,0.8,0.3-0.2-0.1-1.1c-0.4-0.9-0.9-1.8-0.2-1.1c0.3,0.4,0.6,0.8,0.9,1.2
				l0.8,1.3c0.6,0.8,1.2,1.6,1.7,2.5c-0.2-0.3-0.3-0.7-0.5-1c-0.2-0.3-0.4-0.7-0.6-1c-0.4-0.7-0.9-1.4-1.4-2.1
				c-0.5-0.7-1-1.4-1.6-2.1c-0.6-0.7-1.1-1.4-1.7-2c-1.2-1.3-2.4-2.6-3.7-3.7c-0.6-0.6-1.3-1.1-1.9-1.7c-0.6-0.5-1.3-1-1.9-1.4
				c-1.4-1.4-3.1-2.6-2.9-3.1c-4.5-2.5-8.8-4.3-12.8-5.4c-0.5-0.2-1-0.3-1.5-0.5c-0.5-0.1-1-0.3-1.4-0.4c-0.9-0.3-1.9-0.5-2.8-0.7
				c-1.8-0.4-3.5-0.7-5.1-1.1c-0.5-0.1-1.6-0.1-3-0.1c-0.7,0-1.5,0-2.3,0.1c-0.8,0.1-1.7,0.2-2.7,0.4c-0.5,0.1-0.9,0.1-1.4,0.2
				c-0.5,0.1-0.9,0.2-1.4,0.3c-1,0.2-1.9,0.5-2.9,0.7c-0.9,0.3-1.8,0.6-2.7,0.9C109.9,27.6,109.1,27.9,108.4,28.2z"/>
		</g>
	</g>
</g>
<g>
	<g>
		<path d="M152,56.9c0,0-17.5,2.3-27.1,2.3c-10.2,0-27.1-2.7-27.1-2.7v-3.3c0,0,13.3,3.4,27.1,3.5c11.6,0.1,27.1-3.1,27.1-3.1V56.9z
			"/>
		<g>
			<g>
				<g>
					<g>
						<path d="M139.7,55.3C139.7,55.3,139.7,55.3,139.7,55.3C139.7,55.3,139.7,55.3,139.7,55.3z"/>
						<path d="M130.6,56l0.1,0C130.7,56,130.6,56,130.6,56z"/>
						<path d="M145.1,54.6C145.1,54.6,145.1,54.6,145.1,54.6c0.1,0,0.2,0,0.4,0L145.1,54.6z"/>
						<path d="M111.4,54.9l0.1,0C111.4,55,111.4,54.9,111.4,54.9z"/>
						<path d="M122.8,56.1c0,0-0.1,0-0.2,0C122.7,56.1,122.8,56.1,122.8,56.1z"/>
						<path d="M148.1,54.8l-0.2,0C147.9,54.8,148,54.8,148.1,54.8z"/>
						<path d="M151.8,55.2C151.8,55.2,151.8,55.2,151.8,55.2C151.8,55.2,151.8,55.2,151.8,55.2z"/>
						<path d="M151.3,53.9c0,0-0.1,0-0.2,0.1C151.2,53.9,151.3,53.9,151.3,53.9z"/>
						<path d="M151.1,53.9L151.1,53.9C151.1,53.9,151.1,53.9,151.1,53.9z"/>
						<path d="M151.2,57.6c0.2,0,0.3-0.1,0.4-0.1L151.2,57.6z"/>
						<path d="M98,57.5L98,57.5C98,57.5,98,57.5,98,57.5z"/>
						<path d="M151.4,57.2l0.1,0C151.4,57.2,151.4,57.2,151.4,57.2z"/>
						<path d="M145.2,55.4c-0.2,0.1-0.5,0.1-0.5,0.1C144.9,55.5,145.1,55.5,145.2,55.4z"/>
						<path d="M102.2,56.3l0.1,0C102.2,56.3,102.2,56.3,102.2,56.3z"/>
						<path d="M151.4,57.2l-0.1,0C151.2,57.2,151.3,57.2,151.4,57.2C151.3,57.2,151.3,57.2,151.4,57.2z"/>
						<path d="M116.5,59.7L116.5,59.7C116.5,59.7,116.5,59.7,116.5,59.7L116.5,59.7z"/>
						<path d="M117.5,59.9c-0.1,0-0.1,0-0.2,0C117.4,59.9,117.4,59.9,117.5,59.9z"/>
						<path d="M151.6,57.5l0.2-0.1C151.8,57.5,151.7,57.5,151.6,57.5z"/>
						<path d="M128,60.1L128,60.1C128,60.1,128,60.1,128,60.1z"/>
						<path d="M123.5,56.1L123.5,56.1C123.6,56.1,123.6,56.1,123.5,56.1z"/>
						<polygon points="116.2,56.9 116.2,56.9 116.2,56.9 						"/>
						<path d="M116.6,56.9c-0.1,0-0.3,0-0.4,0C116.3,56.9,116.4,56.9,116.6,56.9z"/>
						<path d="M115.4,56.8C115.4,56.8,115.4,56.8,115.4,56.8C115.4,56.8,115.4,56.8,115.4,56.8z"/>
						<polygon points="123.2,57.4 123.2,57.4 123.2,57.4 						"/>
						<path d="M121.6,57.4c0,0-0.1,0-0.1,0C121.6,57.4,121.6,57.4,121.6,57.4z"/>
						<polygon points="111.5,56.5 111.5,56.5 111.5,56.5 						"/>
						<path d="M98.8,54.6C98.8,54.6,98.8,54.6,98.8,54.6C98.8,54.6,98.8,54.6,98.8,54.6C98.8,54.6,98.8,54.6,98.8,54.6l0.3,0
							l0.6,0.1c0.7,0.2,1.5,0.3,2.1,0.4c0.3,0,0.8,0.1,1.2,0.1l0,0.1l0.4,0c0.1,0.1-0.3,0,0,0.1l0.2-0.1c0,0.1,1,0.2,0.3,0.2
							l1.5,0.3c0.3,0.1,0.2-0.1,0.6,0c0.1,0-0.1,0-0.1,0.1c1.1,0.3,1.3,0,2.3,0.2l-0.1,0c0.2,0,0.5,0,0.5,0c-0.1-0.1-0.2,0-0.5-0.1
							c0-0.1,0.4,0,0.4-0.1c0.2,0.1,0.4,0,0.6,0.1c0.3,0.1,0.9,0.1,1.1,0.3c0.2,0,0.4-0.1,0.8,0c0.3,0.1-0.1,0.1,0.3,0.2l0.1-0.1
							c0.3,0,0.2,0.1,0.2,0.1c0.3,0,0.3-0.1,0.7,0l-0.2,0c0.3,0,0.4,0,0.8,0.1c0,0-0.2,0-0.3,0c0.2,0.1,0.4,0,0.5,0
							c0,0-0.3-0.1-0.2-0.1c0.2,0,0.4,0,0.6,0.1l-0.2,0c0.4,0,0.2-0.1,0.7,0c0,0,0,0,0,0c0.3,0,0.7,0.1,1.2,0.1l-0.1,0
							c0.2,0,0.3-0.1,0.4,0c-0.3-0.1-0.2-0.1-0.2-0.1c0.3,0.1,0.5-0.1,1.1,0c0,0-0.2,0.1-0.3,0c-0.2,0.1-0.2,0.2-0.6,0.2
							c0.2,0,0.5,0,0.4,0l0.1-0.1c0.1,0,0.2,0,0.3,0c0.1-0.1-0.3-0.1,0.1-0.1c0.3,0,0.2,0.1,0.2,0.1c0.5,0,0.2-0.1,0.6,0
							c0,0-0.1,0-0.2,0c0.3,0.1,0.8,0,0.9,0.2c0,0-0.1,0.1-0.2,0l0,0c-0.4,0.1,0.3,0,0.2,0.1c0-0.1,0.4,0,0.6,0l-0.1-0.1
							c0.7-0.2,0,0.1,0.6,0.2c0.4,0-0.2,0,0.1-0.1c0.3,0,0.4,0.1,0.8,0.1c0.1,0,0.4,0.1,0.4,0.2c0.3,0,0.8,0.1,0.9,0
							c-0.4-0.1-0.4,0.1-1-0.1l0.1-0.1c0.4,0,0.8,0,1.1,0c0,0-0.1,0,0-0.1c0.5,0,0.7-0.1,1.2,0c0.1,0.1-0.2,0.1-0.4,0.1
							c0.3,0.1,0.3,0,0.8,0c0,0.1-0.3,0-0.4,0.1l0.5,0l0,0c0.1-0.1,0.4,0,0.8,0c0.8,0,0.9-0.1,1.4-0.2c0.1,0,0.2,0.1,0.1,0.1
							c-0.2,0-0.2,0-0.2,0c0.3,0,0.6,0.1,0.4,0.1c0.4,0-0.2-0.1,0.1-0.1l0.6,0c-0.1-0.1-0.3-0.1,0-0.1c0.3,0,0.4,0,0.7,0
							c0,0,0.1,0.1-0.1,0.1c0.2,0,0.4,0,0.5,0c-0.4,0,0.6-0.1,0.3-0.1l0.4,0c-0.1,0-0.1,0-0.2,0c0.1,0.1,0.3,0,0.4,0
							c0.1,0,0.5,0,0.5,0c0.1,0,0.4,0,0.4,0c0.2,0,0-0.1,0.1-0.1l0.6,0c0,0,0.1,0.2,0,0.2c0.2-0.1,0.1-0.1,0.4-0.2
							c-0.2,0.1,0.4,0,0.2,0.2c0.2,0.1,0.7,0,1,0c0.2-0.1-0.3,0-0.3-0.1c0.8-0.1,0.9-0.3,1.5-0.3l-0.2,0c0.4-0.1,0.3-0.1,0.6-0.1
							c-0.1,0.1,0.5,0.2,1.1,0.1c0,0-0.4-0.1-0.3-0.1l0.4-0.1c0,0,0,0-0.1,0c0.4-0.1,0.7,0,0.8-0.1l0.4,0.1l-0.2,0
							c0,0,0.5-0.1,0.5-0.1c0.4-0.1,0.6-0.1,0.8,0c-0.1,0-0.3-0.1,0.1-0.1c0,0.1,0.7,0,0.7,0c0.1,0,0.4,0,0.4-0.1l0,0.1
							c0-0.1,0.5-0.2,0.9-0.2c-0.1,0.2,0.4-0.1,0.6,0.1c0.1-0.1,0.7-0.1,0.7-0.2c0.3,0,0.3,0.1,0.4,0.1l0.1-0.1c0.2,0,0.7,0,1,0
							l0.3-0.1l0.1,0c0,0,0.3-0.1,0.1-0.1l0.2,0c0-0.1,0.2-0.1,0.5-0.2c0.1,0,0.1,0,0,0.1c0.2,0,0.1,0,0.2,0.1
							c-0.1,0,0.6-0.3,0.1-0.3c0,0,0.2-0.1,0.4-0.1l0.1,0.1l0.2-0.1c0.2-0.1,0.4,0,0.6,0c-0.2,0-0.4,0.3,0.1,0.2
							c-0.3,0.1-0.4,0.1-0.6,0.2c0.1,0,0.2,0,0,0.1c0.4-0.1,0.1-0.1,0.5-0.2c0,0.1,0.1,0.1,0.5,0.1l-0.3,0c0,0,0,0,0,0
							c-0.1,0-0.1,0-0.2,0c0.1,0,0.5-0.2,0.5-0.1c-0.4-0.1,0.7-0.2,0.4-0.3c0,0,0.3-0.1,0.4,0c-0.3,0.1,0.3,0.1,0.2,0.1
							c0.1,0-0.3,0-0.1-0.1c0.2,0,0.4,0,0.5,0l-0.1,0l0.3,0c0-0.1-0.3,0,0-0.1c0.1,0,0.4-0.1,0.4,0c-0.1,0.1,0,0.1-0.3,0.2
							c0.2,0,0.9-0.2,0.6-0.2l0.2,0c-0.2,0-0.6,0-0.1-0.1l0,0l0.3-0.1l0.2,0c0,0,0-0.1,0.2-0.1c0,0,0.2,0,0.2,0
							c0.4-0.1,0.3-0.1,0.4-0.1c0.2,0,0.3,0,0.2,0c0.3,0,0.8-0.1,1-0.1c0.4-0.1-0.1,0,0.1-0.1c0.2,0,0.5,0,0.8-0.1
							c0.3-0.1,0.5-0.1,0.7-0.2c0-0.1,0.1,0,0.3-0.2l0,0l0,0c0,0,0,0,0,0c0,0.1-0.1,0.4-0.1,0.2l0,0.2c-0.1,0.2-0.1-0.3-0.2,0
							c0,0.2,0.2,0.2,0.1,0.5c-0.1-0.1,0,0.3-0.1,0.2c0-0.1,0-0.2,0-0.3l0,0c0,0.8,0.1,0.2,0.2,0.6c0,0.5-0.1,0.4-0.1,0.4
							c0,0.1,0,0.3,0,0.5c-0.1-0.3,0.1-0.6,0.1-0.4c-0.1,0.2,0,0.7,0,0.9c0.1-0.7,0-0.5,0.1-1.2c0-0.1-0.1-0.1-0.1-0.5
							c0,0.3,0.1,0,0.1-0.1c-0.1,0.1,0-0.3,0-0.4c0-0.1,0.1,0.2,0.2-0.2c0,0-0.1,0-0.1,0c0-0.1,0.1,0,0.1-0.3
							c0.1,0.1,0.1-0.1,0.1,0.3c0.1-0.4,0-0.7-0.1-0.9c-0.1,0-0.2,0.1-0.3,0.1l0.1-0.1c-0.1,0.1-0.2,0.1-0.4,0.1
							c-0.2,0,0.2-0.1,0.2-0.1l-0.4,0.1c0,0,0,0,0,0c-0.1,0-0.2,0.1-0.3,0c0.1-0.1,0.2-0.1,0.3-0.2l-0.5,0.2c0-0.1-0.4,0-0.1-0.1
							l-0.7,0.1l-0.1-0.1c-0.2,0-0.2,0.1,0,0c-0.2,0-1,0.3-0.9,0.1c-0.5,0.2-0.7,0.2-1.4,0.3c0.5-0.2-0.6,0-0.1-0.1
							c-0.3,0-0.4,0.1-0.6,0.2c-0.2,0-0.2-0.1,0.1-0.2l-0.3,0.1l0,0l-0.3,0.1c-0.3,0-0.1-0.1-0.4,0l0,0.1l-0.2,0
							c0.1,0-0.1,0.1-0.3,0.1l0,0l-0.2,0.1c0.2-0.1-0.2,0-0.1-0.1c-0.2,0-0.2,0-0.6,0.1l0.1,0c-0.5,0.1,0-0.1-0.4,0l0,0.1
							c-0.6,0-1,0.2-1.4,0.2c0.2-0.1,0.2-0.1,0.2-0.1c-0.4,0.1-1,0.1-1.4,0.3c-0.2-0.1-0.2-0.1-0.6-0.1c-0.3,0-0.3,0.1-0.4,0.1
							c-0.3,0-0.8,0.1-0.8,0.1c-0.1,0.1-0.3,0-0.4,0.1l0,0l0,0.1c-0.5-0.1-0.8,0.2-1.4,0.1l0.1,0l-0.2,0c0,0,0-0.1,0.1-0.1l-1,0.1
							l0.2,0c-0.2,0-0.3,0.1-0.6,0.1c0.4-0.1-0.3,0-0.4,0l0.2,0c-0.3,0-0.3,0-0.3,0.1c-0.4,0.1-0.3-0.1-0.6,0l0.2,0
							c0.1,0-0.1,0.1-0.3,0.1c0,0-0.2,0,0,0c-0.3,0.1-0.7,0.1-0.9,0.1c-0.2,0-0.1-0.1,0-0.1c-0.6,0.1-0.3,0-0.9,0.1l0,0l-0.2,0.1
							l-0.3-0.1l0.1,0c-0.2,0-0.3,0.1-0.6,0.1l0.1-0.1c-0.6,0.1-0.7,0-1.2,0.1c0,0,0,0,0.1,0c-0.5,0.1-0.4-0.1-0.9,0.1
							c0,0,0,0,0-0.1l-0.2,0l0-0.1l-0.2,0.1l-0.1-0.1l-0.1,0c-0.3-0.1-0.6,0-1-0.1l0.1,0.1c-0.9,0.2-2,0-3,0.1l0-0.1l-0.4,0.1
							c-0.2-0.1,0.1-0.1,0.1-0.1c-0.5,0-0.2,0.1-0.7,0.1c-0.3,0,0.1-0.1,0.2-0.1c-0.5,0-1.3,0.1-1.6,0c0,0,0,0,0,0
							c-0.3,0-0.8,0-1.2,0c0,0,0.1,0,0.2,0c-0.1,0-0.3,0-0.4,0l0.1-0.1c-0.3,0-0.8,0-0.9-0.1c0,0,0,0.1-0.2,0.1
							c-0.1-0.1-0.7,0-1.1-0.1c0,0,0.3,0,0.3,0c-0.2,0-0.4,0-0.6,0l0.1,0l-0.9,0c-0.1-0.1-0.9,0-0.8-0.1c-0.3,0,0.3,0.1-0.1,0.1
							c-0.1-0.1-0.4,0-0.4-0.1l0,0l-0.3,0l0.2-0.1c-0.3,0-0.4,0.1-0.5,0.1c-0.2-0.1-0.6-0.1-0.7-0.1l0.1,0c-0.7,0-1.1-0.3-1.6-0.2
							c0,0,0,0,0.1,0l-0.4,0l0.1,0l-0.7,0l0,0c-0.4-0.1-1.1-0.1-1.7-0.2l0.1,0c-0.6,0-0.6-0.1-1.1-0.1c0,0,0,0,0.1,0l-0.4-0.1l0.1,0
							c-0.3,0-0.9-0.2-0.7-0.1c-0.2,0-0.5,0-0.5,0c-0.4-0.1-0.1-0.1-0.4-0.1c-0.3-0.1-0.4,0-0.8-0.1l0,0c-0.2,0-0.3,0-0.6-0.1l0.1,0
							c-0.5,0-0.6-0.2-1-0.1c-0.2-0.1-0.6-0.1-0.5-0.2c-0.6,0-1-0.1-1.6-0.2c-0.1-0.1-0.1,0-0.5-0.1l0,0.1c-0.8-0.1-1.7-0.5-2.6-0.6
							l0-0.1l-0.2,0c-1.1-0.3-2.5-0.6-3.4-0.8c-0.4-0.1-0.9-0.1-1.4-0.3c0,0.1,0,0.3,0,0.4l0-0.1c0,0.7,0,1.3,0,2c0,0.4,0,0.7,0,1.2
							c0-0.1,0,0-0.1-0.1c0.1,0.3,0,0.8,0,1.2l0-0.4c0,0.2,0,0.4,0,0.7c-0.1,0.3,0.2,0.3,0.3,0.3l0.7,0c0,0,0.1,0,0.1,0l0.1,0
							l0.3,0.1c0.2,0,0.6,0,0.8,0c0,0,0.4,0.1,0.1,0.1l1.3,0.2l-0.2-0.1c0-0.1,0.4-0.1,0.6,0c-0.3,0,0,0.1,0.1,0.1
							c0.2,0-0.1-0.1,0-0.1c0.2,0,0.7,0,0.8,0.1l-0.1,0c0.3,0,0.4,0.1,0.7,0.2c0.3,0,0.5,0.1,0.4-0.1c0.4,0,0.1,0.1,0.3,0.1
							c0.2,0,0.7,0.1,0.8,0.1c0.2-0.1,1,0.2,1.1,0.1l0.3,0.1c0,0,0.1-0.1,0.3-0.1c0.2,0.1,0.2,0.1,0.2,0.2l0.2-0.1
							c1.3,0.3,3.2,0.4,4.6,0.7c0.7,0,1.5,0.1,2.3,0.2l-0.1,0l0.8,0.1l-0.6-0.1c0.2,0,0.3,0,0.5,0c0.8,0.1,2,0.3,3,0.3
							c0.7-0.1,0.4,0.2,1.1,0.1c-0.1,0-0.1,0-0.1,0c0.7,0,1.1,0,1.8,0c-0.1,0.1,0.5,0,0.4,0.1l0.1-0.1c0.2,0,0.5,0.1,0.5,0.1
							l0.3-0.1l0,0.1c0.4,0,1.3,0,1.5,0.1c1,0,2.7,0,4,0c0.2-0.1,0.6-0.1,0.9-0.1l0.3,0.1c0.3,0,0.6-0.1,0.9-0.1c0,0,0,0,0,0
							c0.3,0,0.6,0,0.9-0.1c0.3,0,0.7,0,0.6,0.1c0-0.1,0.7,0,0.7,0s4.3-0.2,9-0.6c4.8-0.5,10-1.2,12-1.8c0.1-0.1,0.5-0.2,0.4-0.2
							c0.3-0.1,0.4,0,0.5,0c-0.4,0,0.1-0.2-0.3-0.2l0.3,0c0-0.1-0.3,0.1-0.3,0l-0.1,0.1c-0.2,0-0.3,0-0.4,0
							c-0.2,0.1-0.3,0.2-0.8,0.2l0.1,0c-0.4,0.1-0.2,0-0.3-0.1l0.1,0l-0.3,0c0.2,0,0.6-0.1,0.4-0.1c-0.4,0,0.1,0-0.2,0.1
							c-0.2,0-0.2,0-0.2-0.1l-0.4,0.1c0-0.1,0.2,0,0.1-0.1l-0.5,0.1c-0.1-0.1-0.5,0.1-0.7,0c0.3-0.1,0,0,0-0.1l-0.8,0.1
							c-0.1,0,0.2-0.1,0.1,0c-0.2,0-0.3,0.1-0.3,0.1c-0.1,0-0.6,0.1-0.6,0c-0.6,0-0.2,0.1-0.8,0.2c-0.1,0,0.4-0.1,0.2-0.1l-0.5,0.1
							c0,0,0.1-0.1,0.3-0.1c-1.5,0.1-2.3-0.1-3.6,0.1c-0.2,0,0.1-0.1,0.3-0.1c-1,0.2-1.4,0-2.2,0.1l0,0.1c-1.2-0.1-2.5,0.2-3.8,0.2
							l0.2,0c-0.2,0.1-0.5,0.1-0.7,0.1c0,0,0.1-0.1-0.2-0.1c0.1,0,0.2,0,0.2,0c-1.1,0-3.5,0.2-5.3,0.2c-2.5,0.2-5.2,0.2-7.6,0.2
							c0.4,0,0.2,0.1-0.1,0.1c-0.8-0.2-1.3,0-2.1-0.2c-1.4,0-2.7-0.3-4-0.2l0-0.1c-0.2,0-0.3,0-0.5,0l0,0c-0.5-0.1-1.1-0.1-1.4-0.1
							l0,0.1c-0.3,0-0.1-0.1-0.4-0.1l0,0l-0.4,0c0-0.1-0.8-0.1-1-0.2c-0.4,0-1.1,0-1.7-0.1c-0.1-0.1-0.8-0.2-1.2-0.2
							c-0.9-0.1-2.1-0.2-3.2-0.4l0,0.1l-0.3,0c0,0,0,0,0,0c-0.2-0.1-0.7-0.1-0.9-0.1c0.1,0.1,0.2,0,0.4,0.1c0.2,0.1,0,0.1-0.3,0l0,0
							l-0.2,0c0-0.1-0.2-0.1-0.2-0.2c-0.9-0.1-1.6-0.1-2.6-0.2c0.1-0.1-0.7-0.1-0.5-0.2c-0.6,0,0.1,0.1-0.2,0.2
							c-0.2,0-0.3,0-0.4-0.1c0.1,0-0.1-0.1,0-0.1l-0.4,0c0,0,0.1,0,0.1,0c-0.8,0-1.4-0.3-2.1-0.3C99.7,56,100,56,100,56
							c-0.4,0-0.5-0.1-0.7-0.1c-0.1,0-0.1,0-0.2-0.1c-0.1,0-0.3,0-0.3,0c0,0,0,0,0-0.1c0,0-0.1,0.1-0.1,0c0.1-0.1,0.1,0,0.1-0.1
							c0,0-0.1,0-0.1,0.1c0,0,0-0.1,0.1-0.1c0,0,0,0-0.1,0c0,0.1,0-0.7,0-1.1C98.7,54.6,98.8,54.6,98.8,54.6
							C98.7,54.6,98.8,54.6,98.8,54.6z"/>
						<path d="M123.4,57.4l-0.2,0c0,0,0,0-0.1,0.1L123.4,57.4z"/>
						<path d="M113.9,56.7C113.9,56.7,113.8,56.7,113.9,56.7C113.9,56.7,113.9,56.7,113.9,56.7z"/>
						<path d="M111.6,56.6C111.8,56.6,111.6,56.5,111.6,56.6C111.5,56.5,111.5,56.6,111.6,56.6z"/>
						<path d="M128.8,57.2C128.7,57.2,128.7,57.2,128.8,57.2C128.8,57.2,128.8,57.2,128.8,57.2z"/>
						<path d="M143.6,55.7C143.5,55.7,143.5,55.7,143.6,55.7C143.5,55.7,143.5,55.7,143.6,55.7z"/>
						<path d="M142.7,55.7c0,0-0.1,0-0.2,0C142.6,55.7,142.7,55.7,142.7,55.7z"/>
						<path d="M125.2,57.3c-0.1,0-0.1,0-0.2,0C125.1,57.3,125.1,57.3,125.2,57.3z"/>
						<path d="M142.4,55.8l-0.2,0c0,0,0,0,0,0L142.4,55.8z"/>
						<path d="M143.8,55.7c-0.1,0-0.2,0-0.3,0C143.7,55.7,143.8,55.7,143.8,55.7z"/>
						<path d="M134.2,56.7L134.2,56.7C134,56.7,134.1,56.7,134.2,56.7z"/>
						<polygon points="141.5,56 141.5,56 141.4,56 						"/>
						<path d="M144.7,55.6c0,0-0.1,0-0.1,0C144.6,55.6,144.7,55.6,144.7,55.6C144.7,55.6,144.7,55.6,144.7,55.6z"/>
						<path d="M137.3,56.5C137.4,56.4,137.4,56.4,137.3,56.5C137.3,56.4,137.3,56.4,137.3,56.5z"/>
					</g>
				</g>
			</g>
		</g>
	</g>
	<g>
		<path d="M148.1,59.4c0,0-15,2.5-23.2,2.5c-8.7,0-23.2-2.8-23.2-2.8v-2.8c0,0,11.4,2.9,23.2,3c10,0.1,23.2-2.6,23.2-2.6V59.4z"/>
		<g>
			<g>
				<g>
					<g>
						<path d="M137.5,57.9C137.5,57.9,137.6,57.9,137.5,57.9C137.5,57.9,137.5,57.9,137.5,57.9z"/>
						<path d="M129.8,58.5L129.8,58.5C129.8,58.5,129.8,58.5,129.8,58.5z"/>
						<path d="M142.2,57.4C142.2,57.4,142.2,57.4,142.2,57.4c0.1,0,0.2,0,0.3,0L142.2,57.4z"/>
						<path d="M113.3,57.6l0.1,0C113.3,57.6,113.3,57.6,113.3,57.6z"/>
						<path d="M123,58.5c0,0-0.1,0-0.1,0C123,58.6,123,58.6,123,58.5z"/>
						<path d="M144.7,57.7l-0.1,0C144.6,57.6,144.7,57.7,144.7,57.7z"/>
						<path d="M147.9,57.9C147.9,57.9,147.9,57.9,147.9,57.9C147.9,57.9,147.9,57.9,147.9,57.9z"/>
						<path d="M147.5,56.8c0,0-0.1,0-0.1,0C147.4,56.8,147.5,56.8,147.5,56.8z"/>
						<path d="M147.3,56.8L147.3,56.8C147.3,56.8,147.3,56.8,147.3,56.8z"/>
						<path d="M147.5,60.1c0.1,0,0.2-0.1,0.4-0.1L147.5,60.1z"/>
						<path d="M101.8,60L101.8,60C101.8,60,101.8,60,101.8,60z"/>
						<path d="M147.6,59.7L147.6,59.7C147.6,59.6,147.6,59.6,147.6,59.7z"/>
						<path d="M142.3,58.2c-0.1,0.1-0.4,0.1-0.4,0.1C142,58.3,142.2,58.3,142.3,58.2z"/>
						<path d="M105.5,58.9L105.5,58.9C105.6,58.9,105.5,58.9,105.5,58.9z"/>
						<path d="M147.6,59.7l-0.1,0C147.5,59.7,147.5,59.7,147.6,59.7C147.5,59.7,147.5,59.7,147.6,59.7z"/>
						<path d="M117.7,62.4L117.7,62.4C117.7,62.4,117.7,62.4,117.7,62.4L117.7,62.4z"/>
						<path d="M118.5,62.5c-0.1,0-0.1,0-0.2,0C118.4,62.5,118.5,62.5,118.5,62.5z"/>
						<path d="M147.8,60l0.2-0.1C147.9,59.9,147.9,59.9,147.8,60z"/>
						<path d="M127.6,62.7L127.6,62.7C127.6,62.7,127.6,62.7,127.6,62.7z"/>
						<path d="M123.7,58.6L123.7,58.6C123.8,58.6,123.7,58.6,123.7,58.6z"/>
						<polygon points="117.4,59.5 117.4,59.5 117.4,59.5 						"/>
						<path d="M117.7,59.4c-0.1,0-0.3,0-0.3,0C117.5,59.5,117.6,59.5,117.7,59.4z"/>
						<path d="M116.7,59.4C116.7,59.4,116.7,59.4,116.7,59.4C116.7,59.4,116.7,59.4,116.7,59.4z"/>
						<polygon points="123.4,59.9 123.4,59.9 123.4,59.9 						"/>
						<path d="M122.1,59.9C122,59.8,122,59.8,122.1,59.9C122,59.8,122,59.8,122.1,59.9z"/>
						<polygon points="113.4,59.1 113.4,59.1 113.4,59.1 						"/>
						<path d="M102.7,57.6C102.7,57.6,102.7,57.6,102.7,57.6C102.7,57.6,102.7,57.5,102.7,57.6L102.7,57.6
							C102.7,57.5,102.7,57.5,102.7,57.6l0.6,0c0.6,0.1,1.2,0.2,1.8,0.4c0.3,0,0.7,0,1.1,0.1l0,0.1l0.3,0c0.1,0.1-0.3,0,0,0.1
							l0.1-0.1c0,0,0.8,0.2,0.3,0.2l1.3,0.2c0.3,0.1,0.2-0.1,0.5,0c0.1,0-0.1,0-0.1,0.1c0.9,0.3,1.1-0.1,2,0.1l-0.1,0
							c0.2,0,0.4,0,0.4,0c-0.1-0.1-0.2,0-0.4-0.1c0-0.1,0.3,0,0.3-0.1c0.2,0.1,0.3,0,0.5,0c0.3,0.1,0.7,0.1,1,0.2
							c0.2,0,0.3-0.1,0.7-0.1c0.2,0.1-0.1,0.1,0.2,0.1l0.1-0.1c0.3,0,0.2,0.1,0.2,0.1c0.3,0,0.2-0.1,0.6,0l-0.2,0
							c0.3,0,0.4,0,0.7,0.1c0,0-0.2,0-0.3,0c0.2,0.1,0.3,0,0.4,0c0,0-0.3-0.1-0.1-0.1c0.2,0,0.4,0,0.5,0l-0.2,0c0.4,0,0.2-0.1,0.6,0
							c0,0,0,0,0,0c0.3-0.1,0.6,0.1,1,0.1l-0.1,0c0.2,0,0.3-0.1,0.3,0c-0.2-0.1-0.2-0.1-0.2-0.1c0.3,0.1,0.5-0.1,0.9,0
							c0,0-0.1,0.1-0.3,0c-0.2,0.1-0.2,0.2-0.5,0.2c0.2,0,0.4,0,0.4,0l0.1-0.1c0.1,0,0.2,0,0.3,0c0.1-0.1-0.2-0.1,0-0.1
							c0.3,0,0.1,0.1,0.2,0.1c0.4,0,0.2-0.1,0.6,0c0,0-0.1,0-0.1,0c0.3,0.1,0.7,0,0.8,0.2c0,0-0.1,0.1-0.2,0l0,0
							c-0.3,0.1,0.3,0,0.2,0.1c0-0.1,0.4,0,0.5,0l-0.1-0.1c0.6-0.2,0,0.1,0.5,0.2c0.4,0-0.1,0,0.1-0.1c0.2,0,0.3,0.1,0.7,0.1
							c0.1,0,0.3,0.1,0.3,0.2c0.2,0,0.7,0.1,0.8,0c-0.4-0.1-0.4,0.1-0.8-0.1l0.1-0.1c0.3,0,0.7,0,0.9,0c0,0-0.1,0,0-0.1
							c0.4,0,0.6-0.1,1,0c0.1,0.1-0.2,0.1-0.4,0.1c0.3,0.1,0.3,0,0.7,0c0,0.1-0.3,0-0.3,0.1l0.5,0l0,0c0.1-0.1,0.4,0,0.6,0
							c0.7,0,0.8-0.1,1.2-0.2c0.1,0,0.1,0.1,0.1,0.1c-0.2,0-0.1,0-0.2,0c0.2,0,0.5,0.1,0.4,0.1c0.4,0-0.1-0.1,0.1-0.1l0.5,0
							c-0.1-0.1-0.2-0.1,0-0.1c0.2,0,0.3,0,0.6,0c0,0,0.1,0.1-0.1,0.1c0.1,0,0.4,0,0.4,0c-0.3,0,0.5-0.1,0.3-0.1l0.3,0
							c-0.1,0-0.1,0-0.2,0c0.1,0.1,0.3,0,0.4,0c0.1,0,0.4,0,0.4,0c0.1,0,0.3,0,0.4,0c0.1,0,0-0.1,0.1-0.1l0.5,0c0,0,0.1,0.2,0,0.2
							c0.2-0.1,0.1-0.1,0.3-0.2c-0.2,0.1,0.4,0,0.1,0.2c0.2,0.1,0.6,0,0.9,0c0.2-0.1-0.3,0-0.3-0.1c0.7-0.1,0.7-0.3,1.3-0.3l-0.1,0
							c0.3-0.1,0.3-0.1,0.5-0.1c-0.1,0.1,0.4,0.2,0.9,0.1c0,0-0.3-0.1-0.2-0.1l0.4,0c0,0,0,0-0.1,0c0.3-0.1,0.6,0.1,0.7-0.1l0.3,0.1
							l-0.1,0c0,0,0.4-0.1,0.5-0.1c0.4-0.1,0.5-0.1,0.7,0c-0.1,0-0.2-0.1,0.1-0.1c0,0.1,0.6,0,0.6,0.1c0.1,0,0.3,0,0.3-0.1l0,0.1
							c0-0.1,0.4-0.2,0.8-0.2c-0.1,0.2,0.4-0.1,0.5,0.1c0-0.1,0.6-0.1,0.6-0.2c0.2,0,0.2,0.1,0.3,0.1l0.1-0.1c0.1,0,0.6,0,0.9,0
							l0.2-0.1l0.1,0c0,0,0.3-0.1,0.1-0.1l0.1,0c0-0.1,0.2-0.1,0.5-0.1c0.1,0,0.1,0,0,0.1c0.1,0,0.1,0,0.2,0.1
							c-0.1,0,0.5-0.3,0.1-0.3c0,0,0.2-0.1,0.3-0.1l0.1,0.1L141,58c0.2,0,0.3,0,0.5,0c-0.2,0-0.4,0.3,0.1,0.2
							c-0.2,0-0.3,0.1-0.5,0.2c0.1,0,0.1,0,0,0.1c0.4-0.1,0.1-0.1,0.5-0.1c0,0.1,0.1,0.1,0.4,0.1l-0.2,0c0,0,0,0,0,0
							c-0.1,0-0.1,0-0.1,0c0.1,0,0.4-0.2,0.5-0.1c-0.4-0.1,0.6-0.2,0.4-0.3c0,0,0.3-0.1,0.3,0c-0.3,0.1,0.2,0.1,0.2,0.1
							c0.1,0-0.2,0-0.1-0.1c0.2,0,0.3,0,0.4,0l-0.1,0l0.3,0c0-0.1-0.3,0,0-0.1c0.1,0,0.3-0.1,0.3,0c-0.1,0.1,0,0.1-0.2,0.2
							c0.2,0,0.7-0.1,0.5-0.2l0.2,0c-0.1,0-0.5,0-0.1-0.1l0,0l0.3-0.1l0.1,0c0,0,0-0.1,0.1-0.1c0,0,0.1,0,0.1,0.1
							c0.3-0.1,0.3-0.1,0.3-0.1c0.2,0,0.2,0,0.2,0c0.2,0,0.7-0.1,0.8-0.1c0.3-0.1-0.1,0,0.1-0.1c0.1,0,0.2,0,0.3,0
							c0.1,0,0.3,0,0.4-0.1c0.2-0.1,0.4-0.1,0.6-0.2c0-0.1,0.1,0,0.3-0.2l0,0c0,0,0,0,0,0c0,0.1-0.1,0.4-0.1,0.2l0,0.2
							c-0.1,0.2-0.1-0.2-0.2,0.1c0,0.1,0.2,0.2,0.1,0.4c-0.1-0.1,0,0.2-0.1,0.1c0,0,0-0.1,0-0.1l0,0c0,0.1,0,0.1,0,0.2
							c0,0.1,0,0.1,0,0.1c0,0,0.1,0,0.1,0.2c0,0.4-0.1,0.3-0.1,0.4c0,0.1,0,0.3,0,0.4c-0.1-0.3,0.1-0.5,0.1-0.4
							c-0.1,0.2,0,0.6,0,0.8c0.1-0.6,0-0.4,0.1-1c0-0.1-0.1-0.1-0.1-0.4c0,0.2,0.1,0,0.1-0.1c-0.1,0.1,0-0.2,0-0.3
							c0-0.1,0.1,0.1,0.2-0.2c0,0-0.1,0-0.1,0c0-0.1,0.1,0,0.1-0.2c0.1,0.1,0.1-0.1,0.1,0.2c0.1-0.4,0-0.6-0.1-0.7
							c-0.1,0-0.2,0.1-0.3,0.1c0,0,0.1,0,0.1-0.1c-0.1,0.1-0.2,0.1-0.3,0.1c-0.2,0,0.2-0.1,0.2-0.1l-0.4,0.1c0,0,0,0,0,0
							c-0.1,0-0.2,0.1-0.2,0c0.1-0.1,0.2-0.1,0.3-0.2l-0.4,0.2c0-0.1-0.4,0-0.1-0.1l-0.6,0.1l-0.1-0.1c-0.1,0-0.1,0.1,0,0
							c-0.2,0-0.9,0.3-0.8,0.1c-0.5,0.2-0.6,0.2-1.2,0.3c0.4-0.2-0.5,0-0.1-0.1c-0.3,0-0.3,0.1-0.5,0.2c-0.2,0-0.1-0.1,0.1-0.2
							l-0.2,0.1l0,0l-0.2,0.1c-0.2,0-0.1-0.1-0.3-0.1l0,0.1l-0.2,0c0.1,0-0.1,0.1-0.2,0.1l0,0l-0.2,0c0.2-0.1-0.2,0-0.1-0.1
							c-0.2,0-0.2,0-0.5,0.1l0.1,0c-0.4,0.1,0-0.1-0.4,0l0,0.1c-0.5,0-0.8,0.2-1.2,0.2c0.2,0,0.1-0.1,0.1-0.1
							c-0.3,0.1-0.8,0.1-1.2,0.2c-0.1-0.1-0.2-0.1-0.5-0.1c-0.2,0-0.3,0.1-0.4,0.1c-0.2,0-0.7,0.1-0.7,0c0,0.1-0.2,0-0.3,0.1l0,0
							l0,0.1c-0.4-0.1-0.7,0.2-1.2,0.1l0.1,0l-0.2,0c0,0,0,0,0-0.1l-0.8,0.1l0.2,0c-0.2,0-0.3,0.1-0.5,0.1c0.3-0.1-0.3,0-0.3,0
							l0.2,0c-0.2,0-0.2,0-0.2,0.1c-0.3,0.1-0.2-0.1-0.5,0l0.2,0c0.1,0-0.1,0.1-0.2,0.1c0,0-0.1,0,0,0c-0.3,0-0.6,0.1-0.7,0.1
							c-0.1,0-0.1-0.1,0-0.1c-0.5,0.1-0.2,0-0.8,0.1l0,0l-0.2,0.1l-0.3-0.1l0.1,0c-0.2,0-0.3,0.1-0.5,0.1l0.1-0.1
							c-0.5,0.1-0.6,0-1.1,0.1c0,0,0,0,0.1,0c-0.4,0.1-0.3-0.1-0.8,0.1c0,0,0,0,0-0.1l-0.2,0l0-0.1l-0.2,0.1l-0.1-0.1l-0.1,0
							c-0.2-0.1-0.5,0-0.8-0.1l0.1,0.1c-0.7,0.2-1.7,0-2.6,0.1l0-0.1l-0.4,0.1c-0.2-0.1,0.1-0.1,0.1-0.1c-0.4,0-0.2,0.1-0.6,0.1
							c-0.2,0,0.1-0.1,0.2-0.1c-0.4,0-1.1,0.1-1.4,0c0,0,0,0,0,0c-0.3,0-0.7,0-1,0c0,0,0.1,0,0.2,0c-0.1,0-0.3,0-0.4,0l0.1-0.1
							c-0.2,0-0.7,0-0.8-0.1c0,0,0,0.1-0.2,0.1c-0.1-0.1-0.6,0-0.9-0.1c0,0,0.3,0,0.2,0c-0.2,0-0.3,0-0.5,0l0,0l-0.8,0
							c-0.1-0.1-0.7,0-0.7-0.1c-0.3,0,0.2,0.1-0.1,0.1c-0.1-0.1-0.3,0-0.3-0.1l0,0l-0.2,0l0.2-0.1c-0.2,0-0.4,0.1-0.4,0.1
							c-0.2-0.1-0.5-0.1-0.6-0.1l0.1,0c-0.6,0-0.9-0.3-1.4-0.2c0,0,0,0,0,0l-0.4,0l0.1,0l-0.6,0l0,0c-0.4-0.1-1-0.1-1.5-0.2l0.1,0
							c-0.5,0-0.5-0.1-0.9-0.1c0,0,0,0,0,0l-0.4,0l0.1,0c-0.3,0-0.7-0.2-0.6-0.1c-0.2,0-0.4,0-0.5,0.1c-0.4-0.1-0.1-0.1-0.3-0.1
							c-0.3,0-0.3,0-0.7-0.1l0,0c-0.2,0-0.3,0-0.5,0l0.1,0c-0.4,0-0.5-0.2-0.8-0.1c-0.2-0.1-0.5-0.1-0.5-0.2c-0.5,0-0.9-0.1-1.4-0.1
							c-0.1-0.1-0.1,0-0.4-0.1l0,0.1c-0.7-0.1-1.5-0.4-2.2-0.6l0-0.1l-0.2,0c-1-0.2-2.3-0.6-3.1-0.8c-0.3,0-0.7-0.1-1.1-0.2
							c0,0.2,0,0.3,0,0.5l0-0.1c0,0.6,0,1.1,0,1.7c0,0.6,0,0.6,0,1.3c0-0.1,0,0.1-0.1-0.1c0.1,0.3,0,0.7,0,1l0-0.3
							c0,0.2,0,0.4,0,0.6c0,0.1,0,0.1,0.1,0.1l0.1,0c0.1,0,0.1,0,0.2,0.1l0.6,0c0,0,0.1,0,0.1,0l0.1,0l0.3,0.1c0,0,0.1,0,0.2,0
							c0,0,0.1,0,0.2,0c0.1,0,0.3,0,0.3,0c0,0,0.3,0.1,0.1,0.1l1.1,0.2l-0.2-0.1c0-0.1,0.3,0,0.5,0c-0.2,0,0,0.1,0.1,0.1
							c0.2,0-0.1-0.1,0-0.1c0.2,0,0.6,0,0.7,0.1l-0.1,0c0.3,0,0.4,0.1,0.6,0.2c0.2,0,0.4,0.1,0.4-0.1c0.3,0,0.1,0.1,0.2,0.1
							c0.2,0,0.6,0.1,0.7,0.1c0.2-0.1,0.9,0.2,0.9,0.1l0.3,0.1c0,0,0.1-0.1,0.3-0.1c0.2,0.1,0.1,0.1,0.2,0.2l0.2-0.1
							c1.1,0.3,2.7,0.5,4,0.7c0.6,0.1,1.3,0.1,2,0.2l-0.1,0l0.7,0.1l-0.5-0.1c0.1,0,0.3,0,0.4,0c0.7,0.1,1.7,0.3,2.6,0.3
							c0.6-0.1,0.4,0.2,0.9,0.1c0,0-0.1,0-0.1,0c0.6,0,0.9,0,1.6,0c-0.1,0.1,0.4,0,0.3,0.1l0.1-0.1c0.1,0,0.4,0.1,0.4,0.1l0.3-0.1
							l0,0.1c0.4,0,1.1,0,1.3,0.2c0.9,0,2.3,0,3.4,0c0.2-0.1,0.5-0.1,0.7-0.1l0.3,0.1c0.3,0,0.5-0.1,0.8-0.1c0,0,0,0,0,0
							c0.3,0,0.5,0,0.8-0.1c0.3,0,0.6,0,0.5,0.1c0-0.1,0.6,0,0.6,0s0.9,0,2.3-0.2c1.4-0.1,3.4-0.3,5.4-0.6c4.1-0.5,8.5-1.3,10.2-1.9
							c0.1-0.1,0.4-0.2,0.3-0.2c0.2-0.1,0.4,0,0.4,0c-0.4,0,0.1-0.2-0.3-0.2l0.2-0.1c0-0.1-0.3,0.1-0.2,0l0,0.1c-0.2,0-0.3,0-0.3,0
							c-0.2,0.1-0.2,0.2-0.6,0.2l0.1,0c-0.3,0.1-0.2,0-0.3-0.1l0.1,0l-0.3,0c0.2,0,0.5-0.1,0.4-0.1c-0.4,0,0.1,0-0.2,0.1
							c-0.2,0-0.1,0-0.1-0.1l-0.3,0.1c0-0.1,0.2,0,0.1-0.1l-0.4,0.1c-0.1-0.1-0.4,0.1-0.6,0c0.3-0.1,0,0,0-0.1l-0.7,0.1
							c-0.1,0,0.2-0.1,0.1,0c-0.1,0-0.2,0.1-0.3,0.1c-0.1,0-0.5,0.1-0.5,0c-0.5,0-0.2,0.1-0.6,0.2c-0.1,0,0.4-0.1,0.1-0.1l-0.5,0.1
							c0,0,0.1-0.1,0.3-0.1c-1.3,0.1-2-0.1-3.1,0.1c-0.2,0,0.1-0.1,0.2-0.1c-0.8,0.2-1.2,0-1.9,0.1l0,0.1c-1,0-2.2,0.2-3.3,0.3
							l0.1,0c-0.1,0.1-0.4,0.1-0.6,0.1c0,0,0.1-0.1-0.2-0.1c0.1,0,0.2,0,0.2,0c-1,0-3,0.2-4.6,0.3c-2.1,0.2-4.4,0.2-6.5,0.2
							c0.3,0,0.2,0.1-0.1,0.1c-0.6-0.2-1.1,0-1.8-0.2c-1.2,0-2.3-0.3-3.4-0.2l0-0.1c-0.2,0-0.2,0-0.4,0l0,0
							c-0.4-0.1-0.9-0.1-1.2-0.1l0,0.1c-0.2,0-0.1-0.1-0.4-0.1l0,0l-0.3,0c0-0.1-0.7-0.1-0.9-0.2c-0.3,0-0.9,0-1.4-0.1
							c-0.1-0.1-0.7-0.2-1.1-0.2c-0.7-0.1-1.8-0.2-2.7-0.4l0,0.1l-0.2,0c0,0,0,0,0,0c-0.2-0.1-0.6-0.1-0.8-0.1
							c0.1,0.1,0.2,0,0.3,0.1c0.2,0.1,0,0.1-0.3,0l0,0l-0.2,0c0-0.1-0.2-0.1-0.2-0.2c-0.8-0.1-1.4-0.1-2.2-0.3
							c0.1-0.1-0.6-0.1-0.4-0.2c-0.5,0,0.1,0.1-0.2,0.2c-0.1,0-0.3,0-0.3-0.1c0.1,0-0.1-0.1,0-0.1l-0.3,0c0,0,0,0,0.1,0
							c-0.7,0-1.2-0.3-1.8-0.3c-0.1,0,0.2,0.1,0.2,0.1c-0.3,0-0.4-0.1-0.6-0.1c-0.1,0-0.1,0-0.2-0.1c-0.1,0-0.2,0-0.2,0
							c0,0,0,0,0-0.1c0,0-0.1,0.1-0.1,0c0.1-0.1,0.1,0,0.1-0.1c0,0,0,0-0.1,0.1c0,0,0-0.1,0.1-0.1c0,0,0,0-0.1,0c0-0.1,0,0,0-0.1
							c0-0.2,0-0.4,0-0.6C102.6,57.6,102.7,57.6,102.7,57.6C102.6,57.5,102.7,57.6,102.7,57.6z"/>
						<path d="M123.6,59.9l-0.2,0c0,0,0,0-0.1,0.1L123.6,59.9z"/>
						<path d="M115.4,59.3C115.4,59.3,115.4,59.3,115.4,59.3C115.4,59.3,115.4,59.3,115.4,59.3z"/>
						<path d="M113.4,59.2C113.6,59.2,113.5,59.2,113.4,59.2C113.4,59.1,113.4,59.2,113.4,59.2z"/>
						<path d="M128.2,59.7C128.2,59.7,128.1,59.7,128.2,59.7C128.2,59.7,128.2,59.7,128.2,59.7z"/>
						<path d="M140.9,58.4C140.9,58.4,140.8,58.4,140.9,58.4C140.8,58.4,140.8,58.4,140.9,58.4z"/>
						<path d="M140.2,58.4c0,0-0.1,0-0.1,0C140.1,58.4,140.1,58.4,140.2,58.4z"/>
						<path d="M125.1,59.8c0,0-0.1,0-0.1,0C125,59.8,125.1,59.8,125.1,59.8z"/>
						<path d="M139.9,58.5l-0.2,0c0,0,0,0,0,0L139.9,58.5z"/>
						<path d="M141.1,58.4c-0.1,0-0.2,0-0.2,0C141,58.4,141,58.4,141.1,58.4z"/>
						<path d="M132.9,59.2L132.9,59.2C132.7,59.3,132.8,59.3,132.9,59.2z"/>
						<polygon points="139.1,58.7 139.1,58.7 139.1,58.7 						"/>
						<path d="M141.9,58.3C141.8,58.3,141.8,58.3,141.9,58.3C141.8,58.3,141.8,58.3,141.9,58.3C141.9,58.3,141.9,58.3,141.9,58.3z"
							/>
						<path d="M135.5,59.1C135.6,59,135.6,59,135.5,59.1C135.5,59,135.5,59,135.5,59.1z"/>
					</g>
				</g>
			</g>
		</g>
	</g>
	<g>
		<path d="M144.8,61.9c0,0-12.9,2.2-20,2.2c-7.5,0-20-2.4-20-2.4v-2.4c0,0,9.8,2.5,20,2.6c8.6,0,20-2.3,20-2.3V61.9z"/>
		<g>
			<g>
				<g>
					<g>
						<path d="M135.8,60.6C135.8,60.6,135.8,60.6,135.8,60.6C135.8,60.6,135.8,60.6,135.8,60.6z"/>
						<path d="M129.1,61.1L129.1,61.1C129.1,61.1,129.1,61.1,129.1,61.1z"/>
						<path d="M139.7,60.1C139.7,60.1,139.7,60.2,139.7,60.1c0.1,0,0.1,0,0.3,0L139.7,60.1z"/>
						<path d="M114.9,60.2L114.9,60.2C115,60.3,115,60.2,114.9,60.2z"/>
						<path d="M123.3,61.1c0,0-0.1,0-0.1,0C123.2,61.1,123.3,61.1,123.3,61.1z"/>
						<path d="M142,60.5l-0.1,0C141.8,60.5,141.9,60.5,142,60.5z"/>
						<path d="M144.6,60.7C144.6,60.7,144.6,60.7,144.6,60.7C144.6,60.7,144.6,60.7,144.6,60.7z"/>
						<path d="M144.3,59.7c0,0-0.1,0-0.1,0C144.3,59.7,144.3,59.7,144.3,59.7z"/>
						<path d="M144.2,59.7L144.2,59.7C144.2,59.7,144.2,59.7,144.2,59.7z"/>
						<path d="M144.3,62.6c0.1,0,0.2-0.1,0.3-0.1L144.3,62.6z"/>
						<path d="M104.9,62.5L104.9,62.5C104.9,62.6,104.9,62.6,104.9,62.5z"/>
						<path d="M144.4,62.2L144.4,62.2C144.4,62.2,144.4,62.2,144.4,62.2z"/>
						<path d="M139.8,61c-0.1,0.1-0.4,0-0.3,0.1C139.6,61,139.8,61,139.8,61z"/>
						<path d="M108.3,61.4L108.3,61.4C108.3,61.4,108.3,61.4,108.3,61.4z"/>
						<path d="M144.4,62.2L144.4,62.2L144.4,62.2C144.3,62.2,144.4,62.2,144.4,62.2z"/>
						<path d="M118.7,64.6L118.7,64.6C118.7,64.6,118.7,64.6,118.7,64.6L118.7,64.6z"/>
						<path d="M119.4,64.8c-0.1,0-0.1,0-0.2,0C119.3,64.8,119.4,64.8,119.4,64.8z"/>
						<path d="M144.6,62.5l0.2-0.1C144.7,62.4,144.7,62.5,144.6,62.5z"/>
						<path d="M127.2,64.9L127.2,64.9C127.2,64.9,127.2,64.9,127.2,64.9z"/>
						<path d="M123.8,61.1L123.8,61.1C123.9,61.1,123.9,61.1,123.8,61.1z"/>
						<polygon points="118.4,62.1 118.4,62.1 118.4,62.1 						"/>
						<path d="M118.7,62c-0.1,0-0.2,0-0.3,0C118.5,62.1,118.6,62.1,118.7,62z"/>
						<path d="M117.8,62C117.8,62,117.9,62,117.8,62L117.8,62z"/>
						<polygon points="123.6,62.5 123.6,62.5 123.6,62.5 						"/>
						<path d="M122.5,62.4C122.4,62.4,122.4,62.4,122.5,62.4C122.4,62.4,122.4,62.4,122.5,62.4z"/>
						<polygon points="115,61.8 115,61.8 115,61.8 						"/>
						<path d="M106,60.6L106,60.6C106,60.5,106,60.5,106,60.6c0-0.1-0.1-0.1,0.3,0c0.5,0.1,1.1,0.2,1.5,0.3c0.2,0,0.6,0,0.9,0.1
							l0,0.1l0.3,0c0.1,0.1-0.2,0,0,0.1l0.1-0.1c0,0,0.7,0.2,0.2,0.2l1.1,0.2c0.2,0,0.2-0.1,0.4,0c0,0-0.1,0-0.1,0.1
							c0.8,0.2,1-0.1,1.7,0.1l-0.1,0c0.1,0,0.4,0,0.4,0c-0.1-0.1-0.1,0-0.4-0.1c0-0.1,0.3,0,0.3-0.1c0.2,0.1,0.3,0,0.4,0
							c0.3,0.1,0.6,0.1,0.8,0.2c0.1,0,0.3-0.1,0.6-0.1c0.2,0.1-0.1,0.1,0.2,0.1l0.1-0.1c0.2,0,0.2,0.1,0.2,0.1c0.2,0,0.2-0.1,0.5,0
							l-0.2,0c0.2,0,0.3,0,0.6,0.1c0,0-0.1,0-0.2,0c0.2,0.1,0.3,0,0.4,0c0,0-0.2-0.1-0.1-0.1c0.1,0,0.3,0,0.4,0l-0.2,0
							c0.3,0,0.2-0.1,0.5,0c0,0,0,0,0,0c0.2-0.1,0.5,0.1,0.9,0.1l-0.1,0c0.1,0,0.2-0.1,0.3,0c-0.2-0.1-0.1-0.1-0.1-0.1
							c0.2,0.1,0.4-0.1,0.8,0c0,0-0.1,0.1-0.2,0c-0.2,0.1-0.2,0.2-0.4,0.2c0.2,0,0.3,0,0.3,0l0.1-0.1c0.1,0,0.2,0,0.2,0
							c0-0.1-0.2-0.1,0-0.1c0.3,0,0.1,0.1,0.2,0.1c0.3,0,0.2-0.1,0.5,0c0,0-0.1,0-0.1,0c0.2,0.1,0.6,0,0.6,0.2c0,0,0,0.1-0.1,0l0,0
							c-0.3,0.1,0.2,0,0.1,0.1c0-0.1,0.3,0,0.5,0l0-0.1c0.5-0.2,0,0.1,0.5,0.1c0.3,0-0.1,0,0.1-0.1c0.2,0,0.3,0.1,0.6,0.1
							c0.1,0,0.3,0.1,0.3,0.2c0.2,0,0.6,0.1,0.7,0c-0.3-0.1-0.3,0.1-0.7-0.1l0.1-0.1c0.3,0,0.6,0,0.8,0c0,0-0.1,0,0-0.1
							c0.4,0,0.5-0.1,0.8-0.1c0,0.1-0.2,0.1-0.3,0.1c0.2,0.1,0.2,0,0.6,0c0,0.1-0.2,0-0.3,0.1l0.4,0l0,0c0.1-0.1,0.3,0,0.6,0
							c0.6,0,0.7-0.1,1-0.2c0.1,0,0.1,0.1,0.1,0.1c-0.1,0-0.1,0-0.2,0c0.2,0,0.4,0.1,0.3,0.1c0.3,0-0.1-0.1,0.1-0.1l0.4,0
							c-0.1-0.1-0.2-0.1,0-0.1c0.2,0,0.3,0,0.5,0c0,0,0.1,0.1-0.1,0.1c0.1,0,0.3,0,0.4,0c-0.3,0,0.4-0.1,0.2-0.1l0.3,0
							c-0.1,0-0.1,0-0.2,0c0.1,0.1,0.2,0,0.3,0c0.1,0,0.3,0,0.4,0c0.1,0,0.3,0,0.3,0c0.1,0,0-0.1,0-0.1l0.4,0c0,0,0.1,0.2,0,0.2
							c0.2-0.1,0.1-0.1,0.3-0.1c-0.1,0.1,0.3,0,0.1,0.2c0.1,0.1,0.5,0,0.8,0c0.1-0.1-0.2,0-0.2-0.1c0.6-0.1,0.6-0.3,1.1-0.3l-0.1,0
							c0.3-0.1,0.2-0.1,0.4-0.1c-0.1,0.1,0.3,0.2,0.8,0.2c0,0-0.3-0.1-0.2-0.1l0.3,0c0,0,0,0,0,0c0.3-0.1,0.5,0.1,0.6,0l0.3,0.1
							l-0.1,0c0,0,0.3-0.1,0.4-0.1c0.3-0.1,0.4-0.1,0.6,0c-0.1,0-0.2-0.1,0-0.1c0,0.1,0.5,0,0.5,0.1c0.1,0,0.3,0,0.3-0.1l0,0.1
							c0-0.1,0.4-0.2,0.6-0.2c0,0.2,0.3-0.1,0.4,0.1c0-0.1,0.5-0.1,0.5-0.2c0.2,0,0.2,0.1,0.3,0.1l0.1-0.1c0.1,0,0.5,0,0.8,0
							l0.2-0.1l0.1,0c0,0,0.2-0.1,0.1-0.1l0.1,0c0-0.1,0.2-0.1,0.4-0.1c0.1,0,0,0,0,0.1c0.1,0,0.1,0,0.1,0.1c-0.1,0,0.4-0.3,0.1-0.3
							c0,0,0.2-0.1,0.3-0.1l0.1,0.1l0.1-0.1c0.2,0,0.3,0,0.4,0c-0.2,0-0.3,0.2,0.1,0.2c-0.2,0-0.3,0.1-0.4,0.2c0.1,0,0.1,0,0,0.1
							c0.3-0.1,0.1-0.1,0.4-0.1c0,0.1,0.1,0.1,0.4,0.1l-0.2,0c0,0,0,0,0,0c-0.1,0-0.1,0-0.1,0c0.1,0,0.3-0.2,0.4-0.1
							c-0.3-0.1,0.5-0.2,0.3-0.2c0,0,0.2-0.1,0.3,0c-0.2,0.1,0.2,0.1,0.2,0.1c0.1,0-0.2,0-0.1-0.1c0.2,0,0.3,0,0.4,0l-0.1,0l0.2,0
							c0-0.1-0.2,0,0-0.1c0.1,0,0.3-0.1,0.3,0c-0.1,0.1,0,0.1-0.2,0.2c0.2,0,0.6-0.1,0.4-0.2l0.2,0c-0.1,0-0.5,0-0.1-0.1l0,0
							l0.2-0.1l0.1,0c0,0,0,0,0.1-0.1c0,0,0.1,0,0.1,0.1c0.3-0.1,0.2-0.1,0.3-0.1c0.2,0,0.2,0,0.1,0c0.2,0,0.6-0.1,0.7-0.1
							c0.3-0.1-0.1,0,0.1-0.1c0.4,0.1,0.7-0.1,1-0.1c0-0.1,0.1,0,0.3-0.2c0,0,0,0,0,0c0,0,0,0,0,0c0,0.1-0.1,0.4-0.1,0.2l0,0.1
							c-0.1,0.2-0.1-0.2-0.2,0.1c0,0.1,0.2,0.1,0.1,0.3c-0.1,0,0,0.1-0.1,0.1c0,0,0-0.1,0-0.1l0,0c0,0.1,0,0.2,0.1,0.2
							c0,0,0.1,0,0.1,0.1c0,0.4-0.1,0.3-0.1,0.3c0,0.1,0,0.2,0,0.3c-0.1-0.2,0.1-0.4,0.1-0.3c-0.1,0.2,0,0.5,0,0.6
							c0.1-0.5,0-0.4,0.1-0.9c0-0.1-0.1-0.1-0.1-0.3c0,0.1,0.1,0,0.1-0.1c-0.1,0.1,0-0.2,0-0.2c0-0.1,0.1,0.1,0.2-0.2l-0.1,0
							c0-0.1,0.1,0,0.1-0.2c0.1,0.1,0.1-0.1,0.1,0.2c0.1-0.3,0-0.5-0.1-0.6c-0.1,0-0.2,0.1-0.2,0.1c0,0,0.1,0,0.1-0.1
							c-0.1,0.1-0.2,0.1-0.3,0.1c-0.2,0,0.2-0.1,0.2-0.1l-0.3,0.1c0,0,0,0,0,0c-0.1,0-0.2,0.1-0.2,0c0.1-0.1,0.2-0.1,0.2-0.2
							l-0.4,0.2c0-0.1-0.3,0,0-0.1l-0.5,0.1l-0.1-0.1c-0.1,0-0.1,0.1,0,0c-0.2,0-0.8,0.3-0.7,0.1c-0.4,0.1-0.5,0.1-1,0.3
							c0.4-0.1-0.4,0-0.1-0.1c-0.2,0-0.3,0.1-0.5,0.2c-0.2,0-0.1-0.1,0.1-0.2l-0.2,0.1l0,0l-0.2,0.1c-0.2,0-0.1-0.1-0.3-0.1l0,0.1
							l-0.1,0c0.1,0-0.1,0.1-0.2,0.1l0,0l-0.2,0c0.2-0.1-0.2,0-0.1-0.1c-0.2,0-0.2,0-0.4,0.1l0.1,0c-0.4,0.1,0-0.1-0.3,0l0,0.1
							c-0.4,0-0.7,0.2-1.1,0.2c0.2,0,0.1-0.1,0.1-0.1c-0.3,0.1-0.7,0.1-1,0.2c-0.1-0.1-0.1-0.1-0.4-0.1c-0.2,0-0.2,0-0.3,0.1
							c-0.2,0-0.6,0.1-0.6,0c0,0.1-0.2,0-0.3,0.1l0,0l0,0.1c-0.4-0.1-0.6,0.2-1,0.1l0.1,0l-0.2,0c0,0,0,0,0-0.1l-0.7,0.1l0.1,0
							c-0.2,0-0.2,0.1-0.4,0.1c0.3-0.1-0.2,0-0.3,0l0.2,0c-0.2,0-0.2,0-0.2,0.1c-0.3,0-0.2-0.1-0.4,0l0.2,0c0.1,0-0.1,0.1-0.2,0.1
							c0,0-0.1,0,0,0c-0.2,0-0.5,0-0.6,0.1c-0.1,0-0.1-0.1,0-0.1c-0.5,0.1-0.2,0-0.7,0.1l0,0l-0.2,0.1l-0.2-0.1l0.1,0
							c-0.2,0-0.2,0.1-0.4,0l0.1-0.1c-0.4,0.1-0.5,0-0.9,0.1c0,0,0,0,0.1,0c-0.4,0.1-0.3-0.1-0.7,0c0,0,0,0,0-0.1l-0.2,0l0-0.1
							l-0.1,0.1l-0.1-0.1l-0.1,0c-0.2-0.1-0.4,0-0.7-0.1l0,0.1c-0.6,0.2-1.5,0-2.2,0l0-0.1l-0.3,0.1c-0.2-0.1,0.1-0.1,0-0.1
							c-0.3,0-0.1,0.1-0.5,0.1c-0.2,0,0.1-0.1,0.2-0.1c-0.4,0-0.9,0.1-1.2,0c0,0,0,0,0,0c-0.2,0-0.6,0-0.8,0c0,0,0.1,0,0.1,0
							c-0.1,0-0.2,0-0.3,0l0.1-0.1c-0.2,0-0.6,0-0.7-0.1c0,0,0,0.1-0.2,0.1c-0.1-0.1-0.5,0-0.8-0.1c0,0,0.2,0,0.2,0
							c-0.1,0-0.3,0-0.4,0l0,0l-0.7,0c-0.1-0.1-0.6,0-0.6-0.1c-0.2,0,0.2,0.1-0.1,0.1c-0.1-0.1-0.3,0-0.3-0.1l0,0l-0.2,0l0.1-0.1
							c-0.2,0-0.3,0.1-0.3,0.1c-0.2-0.1-0.4,0-0.5-0.1l0.1,0c-0.5,0-0.8-0.3-1.2-0.2c0,0,0,0,0,0l-0.3,0l0.1,0l-0.5,0l0,0
							c-0.3-0.1-0.8-0.1-1.3-0.1l0.1,0c-0.5,0-0.4-0.1-0.8-0.1c0,0,0,0,0,0l-0.3,0l0.1,0c-0.2,0-0.6-0.2-0.5-0.1
							c-0.1,0-0.4,0-0.4,0.1c-0.3,0-0.1-0.1-0.3-0.1c-0.2,0-0.3,0-0.6-0.1l0,0c-0.2,0-0.3,0-0.5,0l0.1,0c-0.4,0-0.4-0.2-0.7-0.1
							c-0.1-0.1-0.4-0.1-0.4-0.1c-0.4,0-0.8-0.1-1.2-0.1c0-0.1-0.1,0-0.3-0.1l0,0.1c-0.6-0.1-1.3-0.4-1.9-0.5l0-0.1l-0.1,0
							c-0.9-0.2-2.1-0.5-2.9-0.7c-0.2,0-0.6-0.1-0.9-0.1c0,0.1,0,0.3,0,0.4l0-0.1c0,0.5,0,1,0,1.5c0,0.6,0,0.7,0,1.3
							c0-0.1,0,0.1-0.1-0.1c0.1,0.2,0,0.6,0,0.9l0-0.3c0,0.1,0,0.3,0,0.5c0.1,0.1,0.2,0.1,0.3,0.2l0.5,0c0,0,0.1,0,0.1,0l0.1,0
							l0.2,0.1c0.1,0,0.2,0,0.4,0c0.1,0,0.2,0,0.3,0c0,0,0.3,0.1,0.1,0.1l0.9,0.2l-0.1-0.1c0-0.1,0.3-0.1,0.4,0c-0.2,0,0,0.1,0,0.1
							c0.1,0-0.1-0.1,0-0.1c0.2,0,0.5,0,0.6,0.1l-0.1,0c0.2,0,0.3,0.1,0.5,0.2c0.2,0,0.3,0.1,0.3-0.1c0.3,0,0.1,0.1,0.2,0.1
							c0.1,0,0.5,0.1,0.6,0.1c0.2-0.1,0.7,0.2,0.8,0.1l0.2,0.1c0,0,0.1-0.1,0.3-0.1c0.2,0.1,0.1,0.1,0.2,0.2l0.1-0.1
							c1,0.3,2.3,0.4,3.4,0.7c0.5,0,1.1,0.1,1.7,0.1l-0.1,0l0.6,0.1l-0.4-0.1c0.1,0,0.2,0,0.3,0c0.6,0.1,1.5,0.3,2.2,0.3
							c0.5-0.1,0.3,0.2,0.8,0.1c0,0-0.1,0-0.1,0c0.5,0,0.8,0,1.3-0.1c-0.1,0.1,0.3,0,0.3,0.1l0-0.1c0.1,0,0.4,0.1,0.3,0.1l0.2-0.1
							l0,0.1c0.3,0,1,0,1.1,0.1c0.8-0.1,2,0,2.9,0c0.1-0.1,0.4-0.1,0.6-0.1l0.2,0.1c0.2,0,0.5-0.1,0.7-0.1c0,0,0,0,0,0
							c0.2,0,0.4,0,0.6-0.1c0.2,0,0.5,0,0.4,0.1c0-0.1,0.5,0,0.5,0s3.2-0.1,6.7-0.6c3.5-0.4,7.3-1.1,8.8-1.7
							c0.1-0.1,0.4-0.2,0.2-0.2c0.2-0.1,0.3,0,0.4,0c-0.3,0,0.1-0.2-0.2-0.2l0.2,0c0,0-0.2,0.1-0.2,0l0,0.1c-0.2,0-0.2,0-0.3,0
							c-0.1,0.1-0.2,0.2-0.5,0.2l0.1,0c-0.3,0-0.2,0-0.2-0.1l0.1,0l-0.2,0c0.2,0,0.5-0.1,0.3-0.1c-0.3,0,0.1,0-0.2,0.1
							c-0.2,0-0.1,0-0.1-0.1l-0.3,0c0-0.1,0.2,0,0.1-0.1l-0.3,0.1c-0.1-0.1-0.4,0.1-0.5,0c0.2-0.1,0,0,0-0.1l-0.6,0.1
							c-0.1,0,0.2-0.1,0.1,0c-0.1,0-0.2,0.1-0.2,0.1c-0.1,0-0.5,0.1-0.4,0c-0.4,0-0.2,0.1-0.5,0.1c-0.1,0,0.3-0.1,0.1-0.1l-0.4,0.1
							c0,0,0.1-0.1,0.2-0.1c-1.1,0.1-1.7-0.1-2.7,0.1c-0.1,0,0.1-0.1,0.2-0.1c-0.7,0.2-1,0-1.6,0.1l0,0.1c-0.9-0.1-1.9,0.2-2.8,0.2
							l0.1,0c-0.1,0.1-0.3,0.1-0.5,0.1c0,0,0.1-0.1-0.2-0.1c0.1,0,0.2,0,0.1,0.1c-0.8,0-2.6,0.2-3.9,0.2c-1.8,0.2-3.8,0.2-5.5,0.1
							c0.3,0,0.2,0.1-0.1,0.1c-0.5-0.2-1,0-1.5-0.2c-1,0-2-0.3-2.9-0.2l0-0.1c-0.1,0-0.2,0-0.3,0l0,0c-0.4-0.1-0.8,0-1-0.1l0,0.1
							c-0.2,0-0.1-0.1-0.3-0.1l0,0l-0.3,0c0-0.1-0.6-0.1-0.8-0.2c-0.3,0-0.8,0-1.2-0.1c-0.1-0.1-0.6-0.1-0.9-0.2
							c-0.6-0.1-1.5-0.2-2.4-0.3l0,0.1l-0.2,0c0,0,0,0,0,0c-0.1-0.1-0.5,0-0.7-0.1c0.1,0.1,0.1,0,0.3,0.1c0.2,0.1,0,0.1-0.2,0l0,0
							l-0.2,0c0-0.1-0.1-0.1-0.2-0.2c-0.7-0.1-1.2-0.1-1.9-0.2c0.1-0.1-0.5-0.1-0.4-0.2c-0.4,0,0.1,0.1-0.2,0.2
							c-0.1,0-0.3,0-0.3-0.1c0.1,0-0.1-0.1,0-0.1l-0.3,0c0,0,0,0,0.1,0c-0.6,0-1-0.3-1.6-0.3c0,0,0.2,0,0.2,0.1
							c-0.3,0-0.4,0-0.5-0.1c-0.1,0-0.1,0-0.2-0.1c-0.1,0,0,0-0.1,0c0,0,0,0,0-0.1c0,0-0.1,0.1-0.1,0c0.1-0.1,0.1,0,0.1-0.1
							c0,0,0,0-0.1,0.1c0,0,0-0.1,0.1-0.1c0,0,0,0-0.1,0.1c0,0,0-0.1,0-0.1c0,0,0-0.2,0-0.2l0,0C105.9,60.5,105.9,60.6,106,60.6
							C105.8,60.5,106,60.6,106,60.6z"/>
						<path d="M123.7,62.5l-0.1,0c0,0,0,0-0.1,0.1L123.7,62.5z"/>
						<path d="M116.7,61.9C116.7,61.9,116.7,61.9,116.7,61.9C116.7,62,116.7,61.9,116.7,61.9z"/>
						<path d="M115,61.9C115.2,61.9,115,61.8,115,61.9C115,61.8,115,61.8,115,61.9z"/>
						<path d="M127.7,62.2C127.7,62.2,127.7,62.3,127.7,62.2C127.7,62.3,127.7,62.2,127.7,62.2z"/>
						<path d="M138.6,61.2C138.6,61.2,138.6,61.2,138.6,61.2C138.6,61.2,138.6,61.2,138.6,61.2z"/>
						<path d="M138,61.1c0,0-0.1,0-0.1,0C138,61.2,138,61.1,138,61.1z"/>
						<path d="M125.1,62.3c0,0-0.1,0-0.1,0C125,62.3,125,62.3,125.1,62.3z"/>
						<path d="M137.8,61.2l-0.2,0c0,0,0,0,0,0L137.8,61.2z"/>
						<path d="M138.8,61.1c-0.1,0-0.1,0-0.2,0C138.7,61.2,138.8,61.2,138.8,61.1z"/>
						<path d="M131.7,61.9L131.7,61.9C131.6,61.9,131.7,61.9,131.7,61.9z"/>
						<polygon points="137.1,61.4 137.1,61.4 137.1,61.4 						"/>
						<path d="M139.5,61.1C139.5,61.1,139.4,61.1,139.5,61.1C139.4,61.1,139.5,61.1,139.5,61.1C139.5,61.1,139.5,61.1,139.5,61.1z"
							/>
						<path d="M134,61.7C134.1,61.7,134.1,61.7,134,61.7C134,61.7,134,61.7,134,61.7z"/>
					</g>
				</g>
			</g>
		</g>
	</g>
	<g>
		<polygon points="143.2,97.1 140.2,97.1 140.2,61.9 141.9,61.9 		"/>
		<g>
			<g>
				<g>
					<g>
						<path d="M143.2,87C143.2,87,143.2,87,143.2,87C143.2,87,143.2,87,143.2,87z"/>
						<path d="M143.2,81L143.2,81C143.2,81.1,143.2,81,143.2,81z"/>
						<path d="M143.2,90.5C143.2,90.5,143.2,90.5,143.2,90.5c0,0,0,0.1,0,0.2L143.2,90.5z"/>
						<path d="M143,68.4L143,68.4C143,68.5,143,68.4,143,68.4z"/>
						<path d="M143.1,75.9C143.1,75.9,143.1,75.8,143.1,75.9C143.1,75.9,143.1,75.9,143.1,75.9z"/>
						<path d="M142.6,92.4l0-0.1C142.6,92.3,142.6,92.3,142.6,92.4z"/>
						<path d="M142.9,96C142.9,96,142.9,96,142.9,96C142.9,96,142.9,96,142.9,96z"/>
						<path d="M143.1,94.6c0,0,0-0.1,0-0.1C143,94.5,143,94.6,143.1,94.6z"/>
						<path d="M143,94.4L143,94.4C143,94.5,143,94.4,143,94.4z"/>
						<path d="M142.6,97.7c0.1,0,0.2,0,0.3-0.1L142.6,97.7z"/>
						<path d="M139.4,65.1L139.4,65.1C139.3,65.1,139.4,65.1,139.4,65.1z"/>
						<path d="M142.7,97.3L142.7,97.3C142.8,97.3,142.8,97.3,142.7,97.3z"/>
						<path d="M142.4,90.5c-0.1-0.1,0-0.3,0-0.3C142.4,90.3,142.3,90.5,142.4,90.5z"/>
						<path d="M141.1,67.5L141.1,67.5C141.1,67.5,141.1,67.5,141.1,67.5z"/>
						<path d="M142.7,97.3L142.7,97.3L142.7,97.3C142.7,97.3,142.7,97.3,142.7,97.3z"/>
						<polygon points="139.3,77 139.3,77 139.3,77 						"/>
						<path d="M139.3,77.6c0,0,0-0.1,0-0.1C139.2,77.5,139.3,77.6,139.3,77.6z"/>
						<path d="M142.9,97.6l0.2,0C143,97.6,142.9,97.6,142.9,97.6z"/>
						<path d="M139.3,84.4L139.3,84.4C139.3,84.4,139.3,84.4,139.3,84.4z"/>
						<path d="M143.1,76.4L143.1,76.4C143.1,76.4,143.1,76.4,143.1,76.4z"/>
						<polygon points="141.7,71.7 141.7,71.7 141.7,71.7 						"/>
						<path d="M141.7,72c0-0.1,0-0.2-0.1-0.2C141.7,71.8,141.7,71.9,141.7,72z"/>
						<path d="M141.7,71.2L141.7,71.2L141.7,71.2z"/>
						<polygon points="141.8,76.2 141.8,76.2 141.8,76.2 						"/>
						<path d="M141.7,75.2C141.7,75.2,141.7,75.2,141.7,75.2C141.7,75.2,141.7,75.2,141.7,75.2z"/>
						<polygon points="141.5,68.7 141.5,68.7 141.5,68.7 						"/>
						<path d="M141.3,63C141.3,63,141.2,62.9,141.3,63c0.1-0.1-0.5-0.1-0.3-0.1c0,0,0,0,0,0c0,0,0.1,0,0.1,0c0,0,0,0,0,0.1l0,0.2
							l-0.1,0l0,0.2c0,0.1,0-0.2-0.1,0l0.1,0.1c0,0,0,0.6-0.1,0.2l0,1c0,0.2,0.1,0.1,0.1,0.4c0,0,0-0.1-0.1-0.1
							c-0.1,0.7,0.3,0.8,0.2,1.5l0-0.1c0,0.1,0,0.3,0.1,0.3c0.1-0.1-0.1-0.1,0-0.3c0.1,0,0.1,0.2,0.1,0.2c0,0.2,0,0.2,0,0.4
							c-0.1,0.2,0,0.6-0.1,0.7c0,0.1,0.1,0.2,0.2,0.5c-0.1,0.2-0.1,0-0.1,0.2l0.1,0c0,0.2,0,0.2-0.1,0.2c0,0.2,0.1,0.2,0.1,0.4
							l-0.1-0.1c0,0.2,0,0.3,0,0.5c0,0,0-0.1,0-0.2c-0.1,0.1,0,0.2,0,0.3c0,0,0-0.2,0.1-0.1c0,0.1,0.1,0.3,0,0.4l-0.1-0.1
							c0.1,0.3,0.1,0.1,0.1,0.5c0,0,0,0,0,0c0.1,0.2,0,0.5,0,0.8l0-0.1c0,0.1,0.1,0.2,0.1,0.2c0-0.2,0.1-0.1,0.1-0.1
							c-0.1,0.2,0.1,0.3,0.1,0.7c0,0-0.1-0.1,0-0.2c-0.1-0.1-0.2-0.1-0.3-0.4c0,0.1,0.1,0.3,0,0.3l0.1,0c0,0.1,0,0.2,0,0.2
							c0.1,0,0.1-0.2,0.1,0c0,0.2-0.1,0.1-0.1,0.2c0,0.3,0.1,0.1,0.1,0.4c0,0,0-0.1,0-0.1c0,0.2,0,0.5-0.1,0.6c0,0-0.1,0-0.1-0.1
							l0,0c-0.1-0.2,0,0.2-0.1,0.1c0.1,0,0.1,0.3,0.1,0.4l0.1,0c0.2,0.4-0.1,0-0.1,0.4c0.1,0.3,0-0.1,0.1,0.1c0,0.2-0.1,0.3,0,0.5
							c0,0.1-0.1,0.2-0.1,0.2c0,0.2,0,0.5,0.1,0.6c0.1-0.3-0.1-0.3,0-0.6l0.1,0.1c0,0.2,0.1,0.5,0,0.7c0,0,0,0,0.1,0
							c0,0.3,0.1,0.4,0.1,0.7c-0.1,0-0.1-0.1-0.1-0.3c-0.1,0.2,0,0.2,0,0.5c-0.1,0,0-0.2-0.1-0.2l0,0.4l0,0c0.1,0,0,0.3,0,0.5
							c0,0.5,0.2,0.6,0.3,0.9c0,0.1-0.1,0.1-0.1,0.1c0-0.1,0-0.1,0-0.1c0,0.2-0.1,0.4-0.1,0.3c0,0.3,0.1-0.1,0.1,0.1l0,0.4
							c0.1,0,0.1-0.2,0.1,0c0,0.2,0,0.2,0,0.5c0,0-0.1,0.1-0.1-0.1c0,0.1,0,0.3,0,0.3c0-0.2,0.1,0.4,0.1,0.2l0,0.2
							c0-0.1,0-0.1,0-0.1c-0.1,0.1,0,0.2,0,0.3c0,0.1,0,0.3,0,0.3c0,0.1,0,0.3,0,0.3c0,0.1,0.1,0,0.1,0l0,0.4c0,0-0.2,0.1-0.2,0
							c0,0.1,0.1,0,0.1,0.3c-0.1-0.1-0.1,0.3-0.2,0.1c-0.1,0.1,0,0.5,0,0.7c0.1,0.1,0-0.2,0.1-0.2c0,0.5,0.2,0.6,0.2,1l0-0.1
							c0,0.2,0,0.2,0.1,0.4c-0.1-0.1-0.2,0.3-0.2,0.7c0,0,0.1-0.2,0.2-0.2l0,0.3c0,0,0,0,0,0c0,0.2-0.1,0.5,0,0.5l-0.1,0.3l0.1-0.1
							c0,0,0.1,0.3,0.1,0.4c0.1,0.3,0,0.4,0,0.5c0,0,0.1-0.2,0.1,0c-0.1,0,0,0.5-0.1,0.5c0,0.1,0,0.2,0,0.3l-0.1,0
							c0.1,0,0.1,0.3,0.2,0.6c-0.2,0,0,0.3-0.1,0.4c0.1,0,0.1,0.4,0.2,0.5c0,0.2-0.1,0.2-0.1,0.2l0,0.1c-0.1,0.1,0,0.5-0.1,0.7
							l0.1,0.2l0,0.1c0,0,0,0.2,0.1,0.1l0,0.1c0.1,0,0,0.1,0.1,0.4c0,0,0,0-0.1,0c0,0.1-0.1,0.1-0.1,0.1c0-0.1,0.2,0.4,0.3,0.1
							c0,0,0.1,0.1,0.1,0.2l-0.1,0.1l0.1,0.1c0,0.2,0,0.2,0,0.4c0-0.1-0.2-0.3-0.2,0.1c0-0.2-0.1-0.3-0.1-0.4c0,0.1,0,0.1-0.1,0
							c0,0.3,0.1,0.1,0.1,0.4c-0.1,0-0.1,0.1-0.1,0.3l0.1-0.2c0,0,0,0,0,0c0-0.1,0-0.1,0.1-0.1c0,0.1,0.1,0.3,0.1,0.4
							c0.1-0.3,0.1,0.5,0.2,0.3c0,0,0,0.2,0,0.2c-0.1-0.2-0.1,0.2-0.2,0.1c0,0.1,0.1-0.2,0.1-0.1c0,0.1,0,0.2-0.1,0.3l0-0.1l0,0.2
							c0,0,0.1-0.2,0.1,0c0,0.1,0,0.2,0,0.2c-0.1-0.1-0.1,0-0.2-0.2c0,0.1,0,0.6,0.1,0.4l0,0.2c0-0.1,0.1-0.4,0.1-0.1l0,0l0.1,0.2
							l0,0.1c0,0,0,0,0,0.1c0,0,0,0.1-0.1,0.1c0,0.2,0.1,0.2,0.1,0.3c0,0.1,0,0.2-0.1,0.1c0,0.2,0,0.5,0,0.6c0,0.2,0-0.1,0.1,0.1
							c-0.2,0.2,0,0.8,0,1.2c0.1-0.1,0,0.1,0.1,0.2c0-0.1-0.1,0.4-0.1,0l0,0.2c-0.1,0.2-0.1-0.4-0.2-0.1c0,0.2,0.2,0.4,0.1,0.7
							c-0.1-0.1,0,0.2-0.1,0.2c0-0.1,0-0.1,0-0.2l0,0.1c0,0.5,0.1,0.2,0.2,0.4c0,0.3-0.1,0.3-0.1,0.3c0,0.1,0,0.2,0,0.3
							c-0.1-0.2,0-0.4,0.1-0.3c-0.1,0.1,0,0.5,0.1,0.6c0.1-0.5,0-0.3,0.1-0.8c0-0.1-0.1,0-0.1-0.3c0.1,0.2,0.1,0,0.1-0.1
							c-0.1,0.1,0-0.2-0.1-0.3c0-0.1,0.1,0.2,0.2-0.1l-0.1,0c0-0.1,0.1,0,0.1-0.2c0.1,0.1,0.1,0,0.1,0.3c0.1-0.4-0.1-0.5-0.1-0.8
							c0,0,0,0,0,0.1c0-0.1,0-0.2,0-0.2c0-0.2,0.1,0.1,0.1,0.1l0-0.3c0,0,0,0,0,0c0-0.1,0-0.2,0-0.2c0,0.1,0.1,0.1,0.1,0.2l-0.1-0.3
							c0,0,0.1-0.3,0.1,0l0-0.5l0.1,0c0-0.1,0-0.1,0,0c0-0.2-0.2-0.7,0-0.6c-0.1-0.4-0.1-0.5-0.1-0.9c0.1,0.3,0.1-0.4,0.1,0
							c0-0.2-0.1-0.3-0.1-0.4c0-0.2,0.1-0.1,0.2,0.1l0-0.2l0,0l-0.1-0.2c0-0.2,0.1,0,0.1-0.2l-0.1,0l0-0.1c0,0-0.1-0.1-0.1-0.2l0,0
							l0-0.2c0.1,0.2,0-0.2,0.1-0.1c0-0.1,0-0.1,0-0.4l-0.1,0c-0.1-0.3,0.1,0,0.1-0.3l-0.1,0c0.1-0.4-0.1-0.7,0-0.9
							c0,0.2,0.1,0.1,0.1,0.1c0-0.2,0-0.6-0.1-0.9c0.1-0.1,0.1-0.1,0.1-0.4c0-0.2,0-0.2-0.1-0.3c0-0.2,0-0.5,0-0.5
							c-0.1,0,0-0.2,0-0.3l0,0l-0.1,0c0.1-0.3-0.1-0.5,0-0.9l0,0.1l0-0.1c0,0,0,0,0.1,0l0-0.6l0,0.1c0-0.1-0.1-0.2,0-0.4
							c0.1,0.3,0-0.2,0.1-0.3l0,0.1c0-0.2,0-0.2-0.1-0.2c0-0.2,0.1-0.2,0-0.4l0,0.2c0,0-0.1-0.1-0.1-0.2c0,0,0-0.1,0,0
							c0-0.2,0-0.5,0-0.6c0-0.1,0.1-0.1,0.1,0c-0.1-0.4,0-0.2-0.1-0.6l0,0l0-0.1l0.1-0.2l0,0.1c0-0.1,0-0.2,0-0.4l0.1,0.1
							c0-0.4,0.1-0.4,0-0.8c0,0,0,0,0,0.1c-0.1-0.3,0.1-0.3,0-0.6c0,0,0,0,0.1,0l0-0.2l0.1,0l-0.1-0.1l0.1-0.1l0-0.1
							c0.1-0.2,0-0.4,0.1-0.6l-0.1,0c-0.2-0.6,0.1-1.3-0.1-2l0.1,0l-0.1-0.3c0.1-0.2,0.1,0.1,0.1,0c-0.1-0.3-0.1-0.1-0.1-0.5
							c0-0.2,0.1,0.1,0.1,0.1c0-0.3-0.1-0.8-0.1-1.1c0,0,0,0,0,0c0-0.2,0-0.5,0-0.8c0,0,0,0.1,0,0.1c0-0.1,0-0.2,0-0.3l0.1,0.1
							c0-0.2-0.1-0.5,0-0.6c0,0-0.1,0-0.1-0.1c0.1-0.1-0.1-0.4,0-0.7c0,0,0,0.2,0,0.2c0-0.1,0-0.2-0.1-0.4l0,0l-0.1-0.6
							c0.1-0.1,0-0.6,0-0.5c0-0.2,0,0.2-0.1-0.1c0-0.1,0-0.2,0-0.2l0,0l0-0.2l0.1,0.1c0-0.2-0.1-0.3-0.1-0.3c0-0.2,0-0.4,0.1-0.4
							l0,0.1c0-0.4,0.2-0.7,0-1.1c0,0,0,0,0,0l0-0.3l0.1,0.1l-0.1-0.4l0,0c0-0.3,0-0.8-0.1-1.1l0,0.1c-0.1-0.4,0-0.4,0-0.7
							c0,0,0,0,0,0l0-0.3l0,0.1c-0.1-0.2,0.1-0.6,0-0.5c0-0.1-0.1-0.3-0.1-0.3c0-0.3,0-0.1,0.1-0.3c0-0.2-0.1-0.2,0-0.5l0,0
							c0-0.1,0-0.2-0.1-0.4l0,0.1c-0.1-0.3,0.1-0.4-0.1-0.6c0-0.1,0-0.4,0.1-0.4c-0.1-0.4-0.1-0.7-0.1-1.1c0.1-0.1,0-0.1,0-0.3
							l-0.1,0c0-0.3,0-0.6,0-0.9c0-0.1,0-0.1,0-0.3c0-0.1,0-0.3,0-0.4c0-0.3,0-0.6,0-0.8l0.1-0.1l-0.1-0.2c0-0.1,0-0.2,0-0.3
							c-1.2,0-2.6,0-3.5,0c0,0.1,0,0.2,0,0.2c0,0.4,0.1,0.9,0.1,1.3l0-0.1l0,0.9c0,0.2,0,0.5,0,0.7c0,0,0,0-0.1,0
							c0.1,0.1,0,0.3,0,0.4l0-0.1c0.1,0.1,0,0.3,0,0.4l0.1,0.2c0,0,0,0,0,0l0,0l-0.1,0.1c0,0.1,0,0.4,0.1,0.5c0,0,0,0.2-0.1,0.1
							l0,0.8l0-0.1c0.1,0,0.1,0.2,0.1,0.4c-0.1-0.2-0.1,0-0.1,0.1c0,0.1,0.1-0.1,0.1,0c0,0.1,0.1,0.4,0,0.5l0-0.1
							c0,0.2-0.1,0.3-0.1,0.5c0.1,0.2,0,0.3,0.1,0.3c0,0.2-0.1,0.1-0.1,0.2c0.1,0.1,0,0.5,0,0.5c0.2,0.1-0.1,0.7,0.1,0.7l-0.1,0.2
							c0,0,0.1,0,0.1,0.2c0,0.2-0.1,0.1-0.1,0.2l0.1,0.1c-0.1,0.9,0,2.1-0.2,3c0,0.4,0.1,1,0.1,1.5l0-0.1l0,0.5l0.1-0.4
							c0,0.1,0,0.2,0,0.3c-0.1,0.6-0.1,1.3-0.1,2c0.2,0.4-0.1,0.3,0,0.7c0,0,0,0-0.1-0.1c0.1,0.5,0.1,0.7,0.2,1.2
							c-0.2-0.1,0,0.3-0.1,0.3l0.1,0c0,0.1-0.1,0.3-0.1,0.3l0.1,0.2l-0.1,0c0,0.3,0,0.8-0.1,1c0.1,0.7,0.1,1.7,0,2.5
							c0.1,0.1,0.1,0.4,0.1,0.5l-0.1,0.2c0,0.2,0.1,0.4,0.1,0.6c0,0,0,0,0,0c0,0.2,0,0.4,0,0.6c0,0.2,0,0.4-0.1,0.4
							c0.1,0,0,0.5,0,0.5s0,1.8-0.1,4.1c0,1.2,0,2.4,0,3.7c0,1.6,0.1,3.1,0.1,4.4c0.5,0,0.9,0,1.4-0.1c0.2,0,0.4,0,0.6,0
							c0.1,0,0.2,0,0.3,0c0.4,0,0.7-0.1,1-0.2c0.1-0.1,0.3-0.1,0.2-0.2c0.2,0,0.3,0.1,0.3,0c-0.3,0,0.1-0.2-0.2-0.2l0.2,0
							c0,0-0.2,0.1-0.2,0l0,0.1c-0.1,0-0.2,0-0.3-0.1c-0.1,0-0.2,0.2-0.5,0.1l0.1,0c-0.2,0-0.1-0.1-0.2-0.1l0.1,0l-0.2-0.1
							c0.2,0,0.4-0.1,0.3,0c-0.3,0,0.1,0-0.1,0c-0.1,0-0.1-0.1-0.1-0.1l-0.2,0c0-0.1,0.2,0,0.1-0.1l-0.3,0.1c0-0.1-0.4,0.1-0.5-0.1
							c0.2,0,0,0,0-0.1l-0.5,0c0,0,0.2,0,0.1,0c-0.1,0-0.2,0-0.2,0c0,0,0,0-0.1,0c0-0.1,0-0.3,0.1-0.3c0.1-0.3-0.1-0.1-0.1-0.4
							c0.1-0.1,0,0.2,0.1,0.1l0-0.3c0,0,0.1,0.1,0.1,0.2c0.1-0.9,0.4-1.4,0.3-2.3c0.1-0.1,0,0.1,0.1,0.2c-0.1-0.6,0.1-0.9,0.1-1.4
							l-0.1,0c0.2-0.8,0.1-1.7,0.1-2.5l0,0.1c-0.1-0.1-0.1-0.3-0.1-0.4c0,0,0.1,0.1,0.1-0.1c0,0.1,0,0.2-0.1,0.1
							c0.1-0.7,0.1-2.3,0.2-3.5c0-1.6,0.1-3.4,0-5c0,0.2-0.1,0.1-0.1,0c0.2-0.5,0-0.9,0.1-1.4c-0.1-0.9,0.1-1.8,0-2.6l0.1,0
							c0-0.1,0-0.2,0-0.3l0,0c0-0.3,0-0.7,0-0.9l-0.1,0c0-0.2,0.1-0.1,0-0.3l0,0l-0.1-0.2c0.1,0,0-0.5,0.1-0.7
							c0-0.2-0.1-0.7-0.1-1.1c0.1-0.1,0.1-0.5,0.1-0.8c0-0.6,0-1.4,0-2.1l-0.1,0l0-0.2c0,0,0,0,0,0c0.1-0.1,0-0.4,0-0.6
							c-0.1,0.1,0,0.1,0,0.2c0,0.2-0.1,0-0.1-0.2l0,0l0-0.1c0.1,0,0.1-0.1,0.2-0.2c0-0.6-0.1-1-0.1-1.7c0.1,0.1,0-0.5,0.1-0.3
							c0-0.4-0.1,0.1-0.2-0.1c0-0.1,0-0.2,0-0.2c0,0.1,0.1-0.1,0.1,0l0-0.3c0,0,0,0,0,0.1c-0.1-0.5,0.1-0.9,0-1.4c0,0,0,0.2-0.1,0.2
							c-0.1-0.5,0.1-0.4,0-0.9l0.1,0.1c0-0.1-0.1-0.2,0-0.4c0.1,0,0.1,0.2,0.1,0.3c0-0.2,0-0.6-0.1-0.4c0-0.2,0-0.3,0.1-0.4
							c0,0,0,0.2-0.1,0.1c0-0.3,0-0.7,0-1c0,0,0,0,0.1,0c0-0.1,0-0.2,0-0.3c0,0,0-0.1,0-0.1C141.3,63,141.3,63,141.3,63
							C141.3,62.9,141.3,63,141.3,63z"/>
						<path d="M141.8,76.4l0-0.1c0,0,0,0-0.1-0.1L141.8,76.4z"/>
						<path d="M141.6,70.2C141.6,70.2,141.6,70.2,141.6,70.2C141.6,70.2,141.6,70.2,141.6,70.2z"/>
						<path d="M141.4,68.7C141.4,68.9,141.5,68.8,141.4,68.7C141.5,68.7,141.4,68.7,141.4,68.7z"/>
						<path d="M142.1,79.8C142.1,79.8,142.1,79.8,142.1,79.8C142.1,79.8,142.1,79.8,142.1,79.8z"/>
						<path d="M142.4,89.4C142.4,89.4,142.4,89.4,142.4,89.4C142.4,89.4,142.4,89.4,142.4,89.4z"/>
						<path d="M142.5,88.9c0,0,0-0.1,0-0.1C142.4,88.8,142.4,88.9,142.5,88.9z"/>
						<path d="M142,77.5c0,0,0-0.1,0-0.1C141.9,77.5,142,77.5,142,77.5z"/>
						<path d="M142.4,88.7l0-0.1c0,0,0,0,0,0L142.4,88.7z"/>
						<path d="M142.4,89.6c0-0.1,0-0.1,0-0.2C142.3,89.5,142.3,89.6,142.4,89.6z"/>
						<path d="M142.3,83.4L142.3,83.4C142.3,83.2,142.3,83.3,142.3,83.4z"/>
						<polygon points="142.3,88.1 142.3,88.1 142.3,88.1 						"/>
						<path d="M142.4,90.2C142.4,90.2,142.3,90.1,142.4,90.2C142.3,90.1,142.3,90.2,142.4,90.2C142.3,90.2,142.3,90.2,142.4,90.2z"
							/>
						<path d="M142.3,85.4C142.3,85.4,142.3,85.4,142.3,85.4C142.3,85.4,142.3,85.4,142.3,85.4z"/>
					</g>
				</g>
			</g>
		</g>
	</g>
	<g>
		<polygon points="110.7,97.1 107.9,97.1 107.9,61.9 109.5,61.9 		"/>
		<g>
			<g>
				<g>
					<g>
						<path d="M110.8,87C110.8,87,110.8,87,110.8,87C110.8,87,110.8,87,110.8,87z"/>
						<path d="M110.8,81.1L110.8,81.1C110.8,81.1,110.8,81.1,110.8,81.1z"/>
						<path d="M110.8,90.5C110.8,90.5,110.8,90.5,110.8,90.5c0,0,0,0.1,0,0.2L110.8,90.5z"/>
						<path d="M110.6,68.5L110.6,68.5C110.6,68.6,110.6,68.5,110.6,68.5z"/>
						<path d="M110.7,76C110.7,75.9,110.7,75.9,110.7,76C110.7,75.9,110.7,76,110.7,76z"/>
						<path d="M110.1,92.4l0-0.1C110.2,92.3,110.1,92.4,110.1,92.4z"/>
						<path d="M110.5,96C110.5,96,110.5,96,110.5,96C110.5,96,110.5,96,110.5,96z"/>
						<path d="M110.6,94.6C110.6,94.6,110.6,94.5,110.6,94.6C110.6,94.5,110.6,94.6,110.6,94.6z"/>
						<path d="M110.6,94.4L110.6,94.4C110.6,94.5,110.6,94.4,110.6,94.4z"/>
						<path d="M110.1,97.7c0.1,0,0.2,0,0.3-0.1L110.1,97.7z"/>
						<path d="M107,65L107,65C107,65,107,65.1,107,65z"/>
						<path d="M110.3,97.3L110.3,97.3C110.3,97.3,110.3,97.3,110.3,97.3z"/>
						<path d="M110,90.5c0-0.1,0-0.3,0-0.3C109.9,90.3,109.9,90.5,110,90.5z"/>
						<path d="M108.8,67.5L108.8,67.5C108.8,67.5,108.8,67.5,108.8,67.5z"/>
						<path d="M110.3,97.3L110.3,97.3L110.3,97.3C110.2,97.3,110.3,97.3,110.3,97.3z"/>
						<polygon points="107,76.9 107,76.9 107,76.9 						"/>
						<path d="M106.9,77.5c0,0,0-0.1,0-0.1C106.9,77.5,106.9,77.5,106.9,77.5z"/>
						<path d="M110.4,97.6l0.2,0C110.5,97.6,110.5,97.6,110.4,97.6z"/>
						<path d="M107,84.3L107,84.3C107,84.3,107,84.3,107,84.3z"/>
						<path d="M110.7,76.4L110.7,76.4C110.7,76.5,110.7,76.5,110.7,76.4z"/>
						<polygon points="109.3,71.8 109.3,71.8 109.3,71.8 						"/>
						<path d="M109.3,72c0-0.1,0-0.2-0.1-0.2C109.3,71.9,109.3,72,109.3,72z"/>
						<path d="M109.3,71.3L109.3,71.3L109.3,71.3z"/>
						<polygon points="109.4,76.3 109.4,76.3 109.4,76.3 						"/>
						<path d="M109.3,75.3C109.3,75.3,109.3,75.3,109.3,75.3C109.3,75.3,109.3,75.3,109.3,75.3z"/>
						<polygon points="109.1,68.8 109.1,68.8 109.1,68.8 						"/>
						<path d="M108.9,63C108.9,63,108.9,62.9,108.9,63C108.9,62.9,108.9,62.9,108.9,63L108.9,63l-0.4-0.1l0.2,0L108.9,63l-0.4-0.1
							l0,0l0,0c0,0,0,0,0,0.1c0,0,0.1,0,0.1,0c0,0,0,0.1,0,0.1l0,0.2l-0.1,0l0,0.2c0,0.1,0-0.2-0.1,0l0.1,0.1c0,0,0,0.6-0.1,0.2l0,1
							c0,0.2,0.1,0.1,0.1,0.4c0,0,0-0.1-0.1-0.1c-0.1,0.7,0.3,0.8,0.2,1.5l0-0.1c0,0.1,0,0.3,0.1,0.3c0.1-0.1-0.1-0.1,0-0.3
							c0.1,0,0.1,0.2,0.1,0.2c0,0.2,0,0.2,0,0.4c-0.1,0.2,0,0.6-0.1,0.7c0,0.1,0.1,0.2,0.2,0.5c-0.1,0.2-0.1,0-0.1,0.2l0.1,0
							c0,0.2,0,0.2-0.1,0.2c0,0.2,0.1,0.2,0.1,0.4l-0.1-0.1c0,0.2,0,0.3,0,0.5c0,0,0-0.1,0-0.2c-0.1,0.1,0,0.2,0,0.3
							c0,0,0-0.2,0.1-0.1c0,0.1,0.1,0.3,0,0.4l-0.1-0.1c0.1,0.3,0.1,0.1,0.1,0.5c0,0,0,0,0,0c0.1,0.2,0,0.5,0,0.8l0-0.1
							c0,0.1,0.1,0.2,0.1,0.2c0-0.2,0.1-0.1,0.1-0.1c-0.1,0.2,0.1,0.3,0.1,0.7c0,0-0.1-0.1,0-0.2c-0.1-0.1-0.2-0.1-0.3-0.4
							c0,0.1,0,0.3,0,0.3l0.1,0c0,0.1,0,0.2,0,0.2c0.1,0,0.1-0.2,0.1,0c0,0.2-0.1,0.1-0.1,0.2c0,0.3,0.1,0.1,0.1,0.4
							c0,0,0-0.1,0-0.1c0,0.2,0,0.5-0.1,0.6c0,0-0.1,0-0.1-0.1l0,0c-0.1-0.2,0,0.2-0.1,0.1c0.1,0,0.1,0.3,0.1,0.4l0.1,0
							c0.2,0.4-0.1,0-0.1,0.4c0.1,0.3,0-0.1,0.1,0.1c0,0.2-0.1,0.3,0,0.5c0,0.1-0.1,0.2-0.1,0.2c0,0.2,0,0.5,0.1,0.6
							c0.1-0.3-0.1-0.3,0-0.6l0.1,0.1c0,0.2,0.1,0.5,0,0.7c0,0,0,0,0.1,0c0,0.3,0.1,0.4,0.1,0.7c-0.1,0-0.1-0.1-0.1-0.3
							c-0.1,0.2,0,0.2,0,0.5c-0.1,0,0-0.2-0.1-0.2l0,0.4l0,0c0.1,0,0,0.3,0,0.5c0,0.5,0.2,0.6,0.3,0.9c0,0.1-0.1,0.1-0.1,0.1
							c0-0.1,0-0.1,0-0.1c0,0.2-0.1,0.4-0.1,0.3c0,0.3,0.1-0.1,0.1,0.1l0,0.4c0.1,0,0.1-0.2,0.1,0c0,0.2,0,0.2,0,0.5
							c0,0-0.1,0.1-0.1-0.1c0,0.1,0,0.3,0,0.3c0-0.2,0.1,0.4,0.1,0.2l0,0.2c0-0.1,0-0.1,0-0.1c-0.1,0.1,0,0.2,0,0.3
							c0,0.1,0,0.3,0,0.3c0,0.1,0,0.3,0,0.3c0,0.1,0.1,0,0.1,0l0,0.4c0,0-0.2,0.1-0.2,0c0,0.1,0.1,0,0.1,0.3
							c-0.1-0.1-0.1,0.3-0.2,0.1c-0.1,0.1,0,0.5,0,0.7c0.1,0.1,0-0.2,0.1-0.2c0,0.5,0.2,0.6,0.2,1l0-0.1c0,0.2,0,0.2,0.1,0.4
							c-0.1-0.1-0.2,0.3-0.2,0.7c0,0,0.1-0.2,0.2-0.2l0,0.3c0,0,0,0,0,0c0,0.2-0.1,0.5,0,0.5l-0.1,0.2l0.1-0.1c0,0,0.1,0.3,0.1,0.4
							c0.1,0.3,0,0.4,0,0.5c0,0,0.1-0.2,0.1,0c-0.1,0,0,0.5-0.1,0.5c0,0.1,0,0.2,0,0.3l-0.1,0c0.1,0,0.1,0.3,0.2,0.6
							c-0.2,0,0,0.3-0.1,0.4c0.1,0,0.1,0.4,0.2,0.5c0,0.2-0.1,0.2-0.1,0.2l0,0.1c-0.1,0.1,0,0.5-0.1,0.7l0.1,0.2l0,0.1
							c0,0,0,0.2,0.1,0.1l0,0.1c0.1,0,0,0.1,0.1,0.4c0,0,0,0-0.1,0c0,0.1-0.1,0.1-0.1,0.1c0-0.1,0.2,0.4,0.3,0.1
							c0,0,0.1,0.1,0.1,0.2l-0.1,0.1l0.1,0.1c0,0.2,0,0.2,0,0.4c0-0.1-0.2-0.3-0.2,0.1c0-0.2-0.1-0.3-0.1-0.4c0,0.1,0,0.1-0.1,0
							c0,0.3,0.1,0.1,0.1,0.4c-0.1,0-0.1,0.1-0.1,0.3l0.1-0.2c0,0,0,0,0,0c0-0.1,0-0.1,0.1-0.1c0,0.1,0.1,0.3,0.1,0.4
							c0.1-0.3,0.1,0.5,0.2,0.3c0,0,0,0.2,0,0.2c-0.1-0.2-0.1,0.2-0.2,0.1c0,0.1,0.1-0.2,0.1-0.1c0,0.1,0,0.2-0.1,0.3l0-0.1l0,0.2
							c0,0,0.1-0.2,0.1,0c0,0.1,0,0.2,0,0.2c-0.1-0.1-0.1,0-0.2-0.2c0,0.1,0,0.6,0.1,0.4l0,0.2c0-0.1,0.1-0.4,0.1-0.1l0,0l0.1,0.2
							l0,0.1c0,0,0,0,0,0.1c0,0,0,0.1-0.1,0.1c0,0.2,0.1,0.2,0.1,0.3c0,0.1,0,0.2-0.1,0.1c0,0.2,0,0.5,0,0.6c0,0.2,0-0.1,0.1,0.1
							c-0.2,0.2,0,0.8,0,1.2c0.1-0.1,0,0.1,0.1,0.2c0-0.1-0.1,0.4-0.1,0l0,0.2c-0.1,0.2-0.1-0.4-0.2-0.1c0,0.2,0.2,0.4,0.1,0.7
							c-0.1-0.1,0,0.2-0.1,0.2c0-0.1,0-0.1,0-0.2l0,0.1c0,0.5,0.1,0.1,0.2,0.4c0,0.3-0.1,0.3-0.1,0.3c0,0.1,0,0.2,0,0.3
							c-0.1-0.2,0-0.4,0.1-0.3c-0.1,0.1,0,0.5,0.1,0.6c0.1-0.5,0-0.3,0.1-0.8c0-0.1-0.1,0-0.1-0.3c0.1,0.2,0.1,0,0.1-0.1
							c-0.1,0.1,0-0.2-0.1-0.3c0-0.1,0.1,0.2,0.2-0.1l-0.1,0c0-0.1,0.1,0,0.1-0.2c0.1,0.1,0.1,0,0.1,0.3c0.1-0.4-0.1-0.5-0.1-0.8
							c0,0,0,0,0,0.1c0-0.1,0-0.2,0-0.2c0-0.2,0.1,0.1,0.1,0.1l0-0.3c0,0,0,0,0,0c0-0.1,0-0.2,0-0.2c0,0.1,0.1,0.1,0.1,0.2l-0.1-0.3
							c0,0,0.1-0.3,0.1,0l0-0.5l0.1,0c0-0.1,0-0.1,0,0c0-0.2-0.2-0.7,0-0.6c-0.1-0.4-0.1-0.5-0.1-0.9c0.1,0.3,0.1-0.4,0.1,0
							c0-0.2-0.1-0.2-0.1-0.4c0-0.2,0.1-0.1,0.2,0.1l0-0.2l0,0l-0.1-0.2c0-0.2,0.1,0,0.1-0.2l-0.1,0l0-0.1c0,0-0.1-0.1-0.1-0.2l0,0
							l0-0.2c0.1,0.2,0-0.2,0.1-0.1c0-0.1,0-0.1,0-0.4l-0.1,0c-0.1-0.3,0.1,0,0.1-0.3l-0.1,0c0.1-0.4-0.1-0.7,0-0.9
							c0,0.2,0.1,0.1,0.1,0.1c0-0.2,0-0.6-0.1-0.9c0.1-0.1,0.1-0.1,0.1-0.4c0-0.2,0-0.2-0.1-0.3c0-0.2,0-0.5,0-0.5
							c-0.1,0,0-0.2,0-0.3l0,0l-0.1,0c0.1-0.3-0.1-0.5,0-0.9l0,0.1l0-0.1c0,0,0,0,0.1,0l0-0.6l0,0.1c0-0.1-0.1-0.2,0-0.4
							c0.1,0.3,0-0.2,0.1-0.3l0,0.1c0-0.2,0-0.2-0.1-0.2c0-0.2,0.1-0.2,0-0.4l0,0.2c0,0-0.1-0.1-0.1-0.2c0,0,0-0.1,0,0
							c0-0.2,0-0.5,0-0.6c0-0.1,0.1-0.1,0.1,0c-0.1-0.4,0-0.2-0.1-0.6l0,0l0-0.1l0.1-0.2l0,0.1c0-0.1,0-0.2,0-0.4l0.1,0.1
							c0-0.4,0.1-0.4,0-0.8c0,0,0,0,0,0.1c-0.1-0.3,0.1-0.3,0-0.6c0,0,0,0,0.1,0l0-0.2l0.1,0l-0.1-0.1l0.1-0.1l0-0.1
							c0.1-0.2,0-0.4,0.1-0.6l-0.1,0c-0.2-0.6,0.1-1.3,0-2l0.1,0l-0.1-0.3c0.1-0.2,0.1,0.1,0.1,0c0-0.3-0.1-0.1-0.1-0.5
							c0-0.2,0.1,0.1,0.1,0.1c0-0.3-0.1-0.8-0.1-1c0,0,0,0,0,0c0-0.2,0-0.5,0-0.8c0,0,0,0.1,0,0.1c0-0.1,0-0.2,0-0.3l0.1,0.1
							c0-0.2-0.1-0.5,0-0.6c0,0-0.1,0-0.1-0.1c0.1-0.1-0.1-0.4,0-0.7c0,0,0,0.2,0,0.2c0-0.1,0-0.2-0.1-0.4l0,0l-0.1-0.6
							c0.1-0.1,0-0.6,0-0.5c0-0.2,0,0.2-0.1-0.1c0-0.1,0-0.2,0-0.2l0,0l0-0.2l0.1,0.1c0-0.2-0.1-0.3-0.1-0.3c0-0.2,0-0.4,0.1-0.4
							l0,0.1c0-0.4,0.2-0.7,0-1.1c0,0,0,0,0,0l0-0.3l0.1,0.1l-0.1-0.4l0,0c0-0.3,0-0.8-0.1-1.1l0,0.1c-0.1-0.4,0-0.4,0-0.7
							c0,0,0,0,0,0l0-0.3l0,0.1c-0.1-0.2,0.1-0.6,0-0.5c0-0.1-0.1-0.3-0.1-0.3c0-0.3,0-0.1,0.1-0.3c0-0.2-0.1-0.2,0-0.5l0,0
							c0-0.1,0-0.2-0.1-0.4l0,0.1c-0.1-0.3,0.1-0.4-0.1-0.6c0-0.1,0-0.4,0.1-0.4c-0.1-0.4-0.1-0.7-0.1-1.1c0.1-0.1,0-0.1,0-0.3
							l-0.1,0c0-0.3,0-0.6,0-0.9l0-0.2c0-0.1,0-0.3,0-0.4c0-0.3,0-0.6,0-0.8l0.1-0.1l-0.1-0.2c0-0.2,0-0.3,0-0.5c-1.2,0-2.6,0-3.5,0
							c0,0.1,0,0.1,0,0.2c0,0.4,0.1,0.9,0.1,1.3l0-0.1l0,1c0,0.2,0,0.5,0,0.7c0,0,0,0-0.1,0c0.1,0.1,0,0.3,0,0.4l0-0.1
							c0.1,0.1,0,0.3,0,0.4l0.1,0.2c0,0,0,0,0,0l0,0l-0.1,0.1c0,0.1,0,0.4,0.1,0.4c0,0,0,0.2-0.1,0.1l0,0.8l0-0.1
							c0.1,0,0.1,0.2,0.1,0.4c-0.1-0.2-0.1,0-0.1,0.1c0,0.1,0.1-0.1,0.1,0c0,0.1,0.1,0.4,0,0.5l0-0.1c0,0.2-0.1,0.3-0.1,0.5
							c0.1,0.2,0,0.3,0.1,0.3c0,0.2-0.1,0.1-0.1,0.2c0.1,0.1,0,0.5,0,0.5c0.2,0.1-0.1,0.7,0.1,0.7l-0.1,0.2c0,0,0.1,0,0.1,0.2
							c0,0.2-0.1,0.1-0.1,0.2l0.1,0.1c-0.1,0.9,0,2.1-0.2,3c0,0.4,0.1,1,0.1,1.5l0-0.1l0,0.5l0.1-0.4c0,0.1,0,0.2,0,0.3
							c-0.1,0.6-0.1,1.3-0.1,2c0.2,0.4-0.1,0.3,0,0.7c0,0,0,0-0.1-0.1c0.1,0.5,0.1,0.7,0.2,1.2c-0.2-0.1,0,0.3-0.1,0.3l0.1,0
							c0,0.1-0.1,0.3-0.1,0.3l0.1,0.2l-0.1,0c0,0.3,0,0.8-0.1,1c0.1,0.7,0.1,1.7,0,2.5c0.1,0.1,0.1,0.4,0.1,0.5l-0.1,0.2
							c0,0.2,0.1,0.4,0.1,0.6c0,0,0,0,0,0c0,0.2,0,0.4,0,0.6c0,0.2,0,0.4-0.1,0.4c0.1,0,0,0.5,0,0.5s0,1.8-0.1,4.1
							c0,1.2,0,2.5,0,3.7c0,1.4,0.1,2.1,0.1,4.4c0.4,0,0.9,0,1.3-0.1c0.2,0,0.4,0,0.6,0c0.2,0,0.2,0,0.3,0c0.4,0,0.7-0.1,1-0.2
							c0.1-0.1,0.3-0.1,0.2-0.2c0.2,0,0.3,0.1,0.3,0c-0.3,0,0.1-0.2-0.2-0.2l0.2,0c0,0-0.2,0.1-0.2,0l0,0.1c-0.1,0-0.2,0-0.3-0.1
							c-0.1,0-0.2,0.2-0.5,0.1l0.1,0c-0.2,0-0.1-0.1-0.2-0.1l0.1,0l-0.2-0.1c0.2,0,0.4-0.1,0.3,0c-0.3,0,0.1,0-0.1,0
							c-0.1,0-0.1-0.1-0.1-0.1l-0.2,0c0-0.1,0.2,0,0.1-0.1l-0.3,0.1c0-0.1-0.4,0.1-0.5-0.1c0.2,0,0,0,0.1-0.1l-0.5,0
							c0,0,0.2,0,0.1,0c0,0-0.1,0-0.2,0c0,0,0,0,0,0c0-0.1,0-0.4,0.1-0.4c0.1-0.3-0.1-0.1-0.1-0.4c0.1,0,0,0.2,0.1,0.1l0-0.3
							c0,0,0.1,0.1,0.1,0.2c0.1-0.9,0.4-1.5,0.3-2.3c0.1-0.1,0,0.1,0.1,0.2c-0.1-0.6,0.1-0.9,0.1-1.4l-0.1,0
							c0.2-0.7,0.1-1.7,0.1-2.5l0,0.1c-0.1-0.1-0.1-0.3-0.1-0.4c0,0,0.1,0.1,0.1-0.1c0,0.1,0,0.2-0.1,0.1c0.1-0.7,0.1-2.3,0.2-3.5
							c0-1.6,0.1-3.4,0-5c0,0.2-0.1,0.1-0.1,0c0.2-0.5,0-0.9,0.1-1.4c-0.1-0.9,0.1-1.8,0-2.6l0.1,0c0-0.1,0-0.2,0-0.3l0,0
							c0-0.3,0-0.7,0-0.9l-0.1,0c0-0.2,0.1-0.1,0-0.3l0,0l-0.1-0.2c0.1,0,0-0.5,0.1-0.7c0-0.2-0.1-0.7-0.1-1.1
							c0.1-0.1,0.1-0.5,0.1-0.8c0-0.6,0-1.4,0-2.1l-0.1,0l0-0.2c0,0,0,0,0,0c0.1-0.1,0-0.4,0-0.6c-0.1,0.1,0,0.1,0,0.2
							c0,0.2-0.1,0-0.1-0.2l0,0l0-0.1c0.1,0,0.1-0.1,0.2-0.2c0-0.6-0.1-1-0.1-1.7c0.1,0.1,0-0.5,0.1-0.3c0-0.4-0.1,0.1-0.2-0.1
							c0-0.1,0-0.2,0-0.2c0,0.1,0.1-0.1,0.1,0l0-0.3c0,0,0,0,0,0.1c-0.1-0.5,0.1-0.9,0-1.4c0,0,0,0.2-0.1,0.2
							c-0.1-0.5,0.1-0.4,0-0.9l0.1,0.1c0-0.1-0.1-0.2,0-0.4c0.1,0,0.1,0.2,0.1,0.3c0-0.2,0-0.6-0.1-0.4c0-0.2,0-0.3,0.1-0.4
							c0,0,0,0.2-0.1,0.1c0-0.3,0-0.7,0-1c0,0,0,0,0.1,0c0-0.1,0-0.2,0-0.3C108.9,63.1,108.9,63.1,108.9,63
							C108.9,63,109,63,108.9,63z"/>
						<path d="M109.3,76.4l0-0.1c0,0,0,0-0.1-0.1L109.3,76.4z"/>
						<path d="M109.2,70.3C109.2,70.3,109.2,70.3,109.2,70.3C109.2,70.3,109.2,70.3,109.2,70.3z"/>
						<path d="M109,68.8C109,68.9,109,68.8,109,68.8C109,68.8,109,68.8,109,68.8z"/>
						<path d="M109.7,79.9C109.6,79.9,109.6,79.9,109.7,79.9C109.6,79.9,109.6,79.9,109.7,79.9z"/>
						<path d="M109.9,89.5C109.9,89.5,109.9,89.4,109.9,89.5C109.9,89.4,109.9,89.4,109.9,89.5z"/>
						<path d="M110,88.9c0,0,0-0.1,0-0.1C110,88.9,110,88.9,110,88.9z"/>
						<path d="M109.5,77.6C109.5,77.5,109.5,77.5,109.5,77.6C109.5,77.5,109.5,77.5,109.5,77.6z"/>
						<path d="M110,88.7l0-0.1c0,0,0,0,0,0L110,88.7z"/>
						<path d="M109.9,89.6c0-0.1,0-0.1,0-0.2C109.9,89.5,109.9,89.6,109.9,89.6z"/>
						<path d="M109.9,83.4L109.9,83.4C109.8,83.3,109.8,83.3,109.9,83.4z"/>
						<polygon points="109.8,88.1 109.8,88.1 109.8,88.1 						"/>
						<path d="M109.9,90.2C109.9,90.2,109.9,90.2,109.9,90.2C109.9,90.2,109.9,90.2,109.9,90.2C109.9,90.2,109.9,90.2,109.9,90.2z"
							/>
						<path d="M109.8,85.4C109.8,85.4,109.9,85.5,109.8,85.4C109.9,85.4,109.9,85.4,109.8,85.4z"/>
					</g>
				</g>
			</g>
		</g>
	</g>
	<g>
		<rect x="104.9" y="68.1" width="39.9" height="1.7"/>
		<g>
			<g>
				<g>
					<g>
						<path d="M135.3,67.7C135.3,67.7,135.3,67.7,135.3,67.7C135.3,67.7,135.3,67.7,135.3,67.7z"/>
						<path d="M128.7,67.5L128.7,67.5C128.8,67.5,128.8,67.5,128.7,67.5z"/>
						<path d="M139.2,67.8C139.2,67.8,139.2,67.8,139.2,67.8c0.1,0,0.1,0,0.3,0L139.2,67.8z"/>
						<path d="M114.8,67.2L114.8,67.2C114.8,67.2,114.8,67.2,114.8,67.2z"/>
						<path d="M123,67.4c0,0-0.1,0-0.1,0C123,67.4,123,67.4,123,67.4z"/>
						<path d="M141.3,68.5l-0.1,0C141.2,68.5,141.2,68.5,141.3,68.5z"/>
						<path d="M144.6,68.7L144.6,68.7C144.6,68.6,144.6,68.6,144.6,68.7z"/>
						<path d="M143.7,68.1c0,0-0.1,0-0.1,0C143.7,68.1,143.7,68.1,143.7,68.1z"/>
						<path d="M143.6,68.1L143.6,68.1C143.6,68.1,143.6,68.1,143.6,68.1z"/>
						<path d="M144.2,70.4c0.1,0,0.2,0,0.3-0.1L144.2,70.4z"/>
						<path d="M106.1,70.7L106.1,70.7C106.1,70.7,106.1,70.7,106.1,70.7z"/>
						<path d="M144.4,70L144.4,70C144.4,70,144.4,70,144.4,70z"/>
						<path d="M139.2,68.6c-0.1,0-0.4,0-0.3,0C139,68.6,139.1,68.7,139.2,68.6z"/>
						<path d="M108.7,68.9L108.7,68.9C108.8,68.9,108.8,68.9,108.7,68.9z"/>
						<path d="M144.4,70L144.4,70L144.4,70C144.3,70,144.3,70,144.4,70z"/>
						<path d="M119.3,70.7L119.3,70.7C119.2,70.7,119.2,70.7,119.3,70.7L119.3,70.7z"/>
						<path d="M120,70.7c0,0-0.1,0-0.1,0C119.9,70.8,119.9,70.8,120,70.7z"/>
						<path d="M144.5,70.3l0.2,0C144.6,70.3,144.6,70.3,144.5,70.3z"/>
						<path d="M127.5,70.7L127.5,70.7C127.5,70.7,127.5,70.7,127.5,70.7z"/>
						<path d="M123.6,67.4L123.6,67.4C123.6,67.4,123.6,67.4,123.6,67.4z"/>
						<polygon points="118.4,68.7 118.4,68.7 118.4,68.7 						"/>
						<path d="M118.6,68.6c-0.1,0-0.2,0-0.3,0.1C118.5,68.7,118.5,68.7,118.6,68.6z"/>
						<path d="M117.8,68.6C117.8,68.6,117.8,68.6,117.8,68.6L117.8,68.6z"/>
						<polygon points="123.4,68.7 123.4,68.7 123.4,68.7 						"/>
						<path d="M122.3,68.7C122.2,68.7,122.2,68.7,122.3,68.7C122.2,68.7,122.2,68.7,122.3,68.7z"/>
						<polygon points="115,68.8 115,68.8 115,68.8 						"/>
						<path d="M106,69.1C106,69.1,106,69.1,106,69.1c-0.5,0,1.2-0.1,2-0.1c0.2-0.1,0.6-0.1,0.9-0.1l0,0.1l0.3,0c0.1,0-0.2,0,0,0.1
							l0.1-0.1c0,0,0.7,0,0.2,0.1l1.1,0c0.2,0,0.1-0.1,0.4-0.1c0.1,0-0.1,0-0.1,0.1c0.8,0.1,0.9-0.2,1.6-0.2l-0.1,0
							c0.1,0,0.4,0,0.4,0c-0.1-0.1-0.1,0.1-0.4,0c0-0.1,0.3-0.1,0.3-0.1c0.2,0,0.3,0,0.4,0c0.3,0.1,0.6,0,0.8,0.1
							c0.1,0,0.3-0.1,0.5-0.1c0.2,0.1,0,0.1,0.2,0.1l0-0.1c0.2,0,0.2,0,0.2,0.1c0.2,0,0.2-0.1,0.5,0l-0.2,0.1c0.2,0,0.3,0,0.6,0
							c0,0-0.1,0-0.2,0c0.2,0.1,0.3,0,0.4,0c0,0-0.2,0-0.1-0.1c0.1,0,0.3-0.1,0.4,0l-0.2,0.1c0.3,0,0.2-0.1,0.5-0.1c0,0,0,0,0,0
							c0.2-0.1,0.5,0,0.8,0l-0.1,0c0.1,0,0.2-0.1,0.3-0.1c-0.2,0-0.1-0.1-0.2-0.1c0.2,0.1,0.4-0.1,0.8-0.1c0,0-0.1,0.1-0.2,0
							c-0.1,0.1-0.2,0.2-0.4,0.2c0.2,0,0.3,0,0.3,0l0-0.1c0.1,0,0.2,0,0.2,0c0-0.1-0.2-0.1,0-0.1c0.2,0,0.1,0.1,0.2,0.1
							c0.3,0,0.1-0.1,0.5-0.1c0,0-0.1,0-0.1,0c0.2,0,0.6,0,0.6,0.1c0,0,0,0.1-0.1,0.1l0,0c-0.3,0.1,0.2,0,0.1,0.1c0-0.1,0.3,0,0.5,0
							l0-0.1c0.5-0.2,0,0.1,0.5,0.1c0.3,0-0.1,0,0.1-0.1c0.2,0,0.3,0.1,0.6,0c0.1,0,0.3,0.1,0.3,0.1c0.2,0,0.6,0,0.7,0
							c-0.3-0.1-0.3,0.1-0.7,0l0.1-0.1c0.3,0,0.6,0,0.8,0c0,0-0.1,0,0-0.1c0.4,0,0.5-0.1,0.8-0.1c0,0.1-0.2,0.1-0.3,0.1
							c0.2,0.1,0.2,0,0.6,0c0,0.1-0.2,0-0.3,0.1l0.4,0v0c0.1-0.1,0.3,0,0.5,0c0.6,0,0.7-0.1,1-0.2c0.1,0,0.1,0.1,0.1,0.1
							c-0.1,0-0.1,0-0.2,0c0.2,0,0.4,0.1,0.3,0.1c0.3,0-0.1-0.1,0.1-0.1l0.4,0c0-0.1-0.2-0.1,0-0.1c0.2,0,0.3,0,0.5,0
							c0,0,0.1,0.1-0.1,0.1c0.1,0,0.3,0,0.4,0c-0.3,0,0.4,0,0.2-0.1l0.3,0c-0.1,0-0.1,0-0.2,0c0.1,0.1,0.2,0,0.3,0
							c0.1,0,0.3,0,0.3,0.1c0.1,0,0.3,0,0.3,0c0.1,0,0-0.1,0-0.1l0.4,0c0,0,0.1,0.2,0,0.2c0.2,0,0.1-0.1,0.3-0.1
							c-0.1,0.1,0.3,0.1,0.1,0.2c0.1,0.1,0.5,0.1,0.7,0c0.1-0.1-0.2,0-0.2-0.1c0.6,0,0.6-0.2,1.1-0.2l-0.1,0c0.3,0,0.2,0,0.4-0.1
							c-0.1,0.1,0.3,0.2,0.8,0.2c0,0-0.3-0.1-0.2-0.2l0.3,0c0,0,0,0-0.1,0c0.3,0,0.5,0.1,0.6,0l0.3,0.1l-0.1-0.1
							c0,0,0.3-0.1,0.4-0.1c0.3,0,0.4,0,0.6,0c-0.1,0-0.2-0.1,0.1-0.1c0,0.1,0.5,0.1,0.5,0.1c0.1,0,0.3,0,0.3,0l0,0.1
							c0-0.1,0.4-0.1,0.7-0.1c-0.1,0.2,0.3,0,0.4,0.1c0.1-0.1,0.5,0,0.5-0.1c0.2,0,0.2,0.1,0.2,0.1l0.1,0c0.1,0.1,0.5,0.1,0.7,0.1
							l0.2-0.1l0.1,0c0,0,0.2,0,0.1-0.1l0.1,0c0-0.1,0.2,0,0.4-0.1c0.1,0,0,0,0,0.1c0.1,0,0.1,0.1,0.1,0.1c-0.1,0,0.4-0.2,0.1-0.3
							c0,0,0.2-0.1,0.3-0.1l0.1,0.1l0.1-0.1c0.2,0,0.3,0,0.4,0.1c-0.2,0-0.3,0.2,0.1,0.2c-0.2,0-0.3,0.1-0.4,0.1c0.1,0,0.1,0,0,0.1
							c0.3,0,0.1-0.1,0.4-0.1c0,0.1,0.1,0.1,0.3,0.2l-0.2-0.1c0,0,0,0,0,0c-0.1,0-0.1,0-0.1-0.1c0.1,0,0.3-0.1,0.4-0.1
							c-0.3-0.1,0.5-0.1,0.3-0.2c0,0,0.2,0,0.3,0c-0.3,0.1,0.2,0.1,0.1,0.2c0.1,0-0.2-0.1-0.1-0.1c0.1,0,0.3,0,0.3,0.1l-0.1,0l0.2,0
							c0,0-0.2-0.1,0-0.1c0.1,0,0.3,0,0.3,0c-0.1,0.1,0,0.1-0.2,0.2c0.2,0,0.6,0,0.4-0.1l0.2,0c-0.1,0-0.4-0.1-0.1-0.1l0,0l0.3-0.1
							l0.1,0c0,0,0,0,0.1,0c0,0,0.1,0,0.1,0.1c0.3,0,0.2-0.1,0.3-0.1c0.2,0,0.2,0,0.1,0.1c0.2,0,0.6,0,0.7,0c0.3,0-0.1,0,0.1-0.1
							c0.1,0.1,0.3,0.1,0.6,0.1c0.2,0,0.6,0,0.7,0c0-0.1,0.1,0,0.2-0.1c-0.1,0,0.2,0.1,0,0.1l0.2,0c0,0.1-0.3,0.1-0.2,0.2
							c0.1,0,0.2-0.1,0.3-0.1c0,0,0,0.1,0,0.2c-0.1,0,0,0.1-0.1,0.1c0,0,0-0.1,0-0.1l0,0c0,0.3,0.1,0,0.2,0.2c0,0.2-0.1,0.2-0.1,0.2
							c0,0.1,0,0.2,0,0.3c-0.1-0.2,0.1-0.4,0.1-0.3c-0.1,0.2,0,0.5,0,0.6c0.1-0.5,0-0.4,0.1-0.8c0-0.1-0.1,0-0.1-0.2
							c0,0.1,0.1,0,0.1-0.1c-0.1,0.1,0-0.1,0-0.2c0-0.1,0.1,0,0.2-0.2l-0.1,0.1c-0.1,0,0.1-0.1-0.1-0.1c0.2-0.1,0.1-0.1,0.3-0.1
							c0,0,0,0,0,0.1c0,0,0-0.1,0-0.1c-0.3-0.1-0.6,0.1-0.8,0.1c0,0,0,0,0.1,0c-0.1,0-0.2,0-0.2,0c-0.2,0,0.1-0.1,0.1-0.1l-0.3,0
							c0,0,0,0,0,0c-0.1,0-0.2,0-0.2,0c0.1,0,0.1-0.1,0.2-0.1l-0.3,0.1c0,0-0.3-0.1,0-0.1l-0.5,0l0-0.1c-0.1,0-0.1,0,0,0
							c-0.2,0-0.8,0.2-0.7,0c-0.4,0.1-0.5,0-1,0.1c0.4-0.1-0.4-0.1,0-0.1c-0.2,0-0.3,0.1-0.5,0.1c-0.2,0-0.1-0.1,0.1-0.2l-0.2,0l0,0
							l-0.2,0.1c-0.2,0,0-0.1-0.2-0.1l0,0.1l-0.1,0c0.1,0-0.1,0.1-0.2,0.1l0,0l-0.2,0c0.2,0-0.2,0-0.1-0.1c-0.2,0-0.2,0-0.4,0l0,0.1
							c-0.4,0,0-0.1-0.3-0.1l0,0.1c-0.4-0.1-0.7,0.1-1,0c0.2,0,0.1-0.1,0.1-0.1c-0.3,0-0.7,0-1,0.1c-0.1-0.1-0.1-0.1-0.4-0.2
							c-0.2,0-0.2,0-0.3,0.1c-0.2,0-0.6,0-0.6,0c0,0.1-0.2,0-0.3,0l0,0l0,0.1c-0.4-0.1-0.6,0.1-1,0l0.1,0l-0.2,0c0,0,0,0,0-0.1
							l-0.7,0l0.1,0c-0.2,0-0.3,0.1-0.4,0c0.3-0.1-0.2,0-0.3-0.1l0.2,0c-0.2,0-0.2,0-0.2,0.1c-0.3,0-0.2-0.1-0.4-0.1l0.2,0
							c0.1,0-0.1,0.1-0.2,0.1c0,0-0.1,0,0,0c-0.2,0-0.5,0-0.6,0c-0.1,0-0.1-0.1,0-0.1c-0.5,0.1-0.2,0-0.7,0l0,0l-0.2,0l-0.2-0.1
							l0.1,0c-0.2,0-0.2,0-0.4,0l0.1-0.1c-0.4,0-0.5-0.1-0.9,0c0,0,0,0,0.1,0c-0.4,0.1-0.3-0.1-0.7,0c0,0,0,0,0-0.1l-0.2,0l0-0.1
							l-0.1,0.1l-0.1-0.1l-0.1,0c-0.2-0.1-0.4,0-0.7-0.1l0,0.1c-0.6,0.2-1.4-0.1-2.2,0l0-0.1l-0.3,0.1c-0.2-0.1,0.1-0.1,0-0.1
							c-0.3,0-0.1,0.1-0.5,0.1c-0.2,0,0.1-0.1,0.2-0.1c-0.4,0-0.9,0.1-1.2,0c0,0,0,0,0,0c-0.2,0-0.6,0-0.8,0c0,0,0.1,0,0.1,0
							c-0.1,0-0.2,0-0.3,0l0.1-0.1c-0.2,0-0.6,0-0.7,0c0,0,0,0.1-0.2,0.1c-0.1-0.1-0.5,0-0.8,0c0,0,0.2,0,0.2,0
							c-0.1,0-0.3,0-0.4,0.1l0,0l-0.7,0.1c-0.1-0.1-0.6,0-0.6-0.1c-0.2,0,0.2,0-0.1,0.1c-0.1,0-0.3,0-0.3,0l0,0l-0.2,0l0.1-0.1
							c-0.2,0-0.3,0.1-0.3,0.1c-0.2,0-0.4,0-0.5-0.1l0.1,0c-0.5,0-0.8-0.2-1.2-0.1c0,0,0,0,0,0l-0.3,0l0.1-0.1l-0.5,0.1l0,0
							c-0.3,0-0.8,0-1.3,0l0.1,0c-0.5,0.1-0.4,0-0.8,0c0,0,0,0,0,0l-0.3,0l0.1,0c-0.2,0.1-0.6-0.1-0.5,0c-0.1,0-0.3,0.1-0.4,0.1
							c-0.3,0-0.1,0-0.3-0.1c-0.2,0-0.3,0.1-0.6,0l0,0c-0.2,0-0.2,0-0.5,0l0.1,0c-0.3,0.1-0.4-0.1-0.7,0.1c-0.1,0-0.4,0-0.4-0.1
							c-0.4,0-0.8,0.1-1.2,0.1c-0.1-0.1-0.1,0-0.3-0.1l0,0.1c-0.6,0-1.3-0.1-1.9-0.1l0-0.1l-0.1,0.1c-0.4,0-0.8,0-1.2,0
							c-0.6,0-1.1,0-1.5,0c-0.3,0-0.6,0.1-0.9,0.1c0,0.1,0,0.3,0,0.4l0-0.1c0,0.5,0,1,0,1.5c0,0.3,0,0.6,0,0.9c0,0.2,0,0.5,0,0.7
							l0.2,0c-0.1,0,0,0-0.1,0.1c0.3-0.1,0.6,0,0.8,0l-0.2,0c0.3-0.1,0.7,0,0.8,0c0.1,0,0.3,0,0.4-0.1c0,0,0,0,0,0l0,0l0.1,0.1
							c0.1,0,0.4,0,0.5-0.1c0,0,0.3,0,0.1,0.1l0.9,0l-0.1,0c0-0.1,0.3-0.1,0.4-0.1c-0.2,0.1,0,0.1,0.1,0.1c0.1,0-0.1-0.1,0-0.1
							c0.2,0,0.5-0.1,0.6,0l-0.1,0c0.2,0,0.3,0.1,0.5,0.1c0.2-0.1,0.3,0,0.3-0.1c0.3,0,0.1,0.1,0.2,0.1c0.1-0.1,0.5,0,0.6,0
							c0.1-0.2,0.7,0.1,0.8-0.1l0.2,0.1c0,0,0.1-0.1,0.2-0.1c0.2,0,0.1,0.1,0.2,0.1l0.1-0.1c1,0.1,2.3,0,3.4,0.2
							c0.5,0,1.1-0.1,1.7-0.1l-0.1,0l0.6,0l-0.4-0.1c0.1,0,0.2,0,0.3,0c0.6,0.1,1.4,0.1,2.2,0.1c0.5-0.2,0.3,0.1,0.8,0
							c0,0-0.1,0-0.1,0.1c0.5-0.1,0.8-0.1,1.3-0.2c-0.1,0.2,0.3,0,0.3,0.1l0-0.1c0.1,0,0.4,0.1,0.3,0.1l0.2-0.1l0,0.1
							c0.3,0,0.9,0,1.1,0.1c0.7-0.1,1.9-0.1,2.8,0c0.1-0.1,0.4-0.1,0.6-0.1l0.2,0.1c0.2,0,0.4-0.1,0.6-0.1c0,0,0,0,0,0
							c0.2,0,0.4,0,0.6,0c0.2,0,0.5,0,0.4,0.1c0-0.1,0.5,0,0.5,0s12.2,0.3,15.2-0.4c0.1-0.1,0.4-0.1,0.3-0.2c0.2,0,0.3,0.1,0.4,0
							c-0.3,0,0.1-0.2-0.2-0.2l0.2,0c0,0-0.2,0.1-0.2,0l-0.1,0.1c-0.1,0-0.2,0-0.3-0.1c-0.1,0-0.2,0.2-0.6,0.1l0.1,0
							c-0.3,0-0.2-0.1-0.2-0.1l0.1,0l-0.2-0.1c0.2,0,0.5-0.1,0.3,0c-0.3,0,0.1,0-0.2,0c-0.1,0-0.1-0.1-0.1-0.1l-0.3,0
							c0-0.1,0.2,0,0.1-0.1l-0.3,0.1c-0.1-0.1-0.4,0.1-0.5-0.1c0.2,0,0,0,0-0.1l-0.6,0c-0.1,0,0.2,0,0.1,0c-0.1,0-0.2,0-0.2,0
							c-0.1,0-0.4,0-0.4-0.1c-0.4-0.1-0.2,0.1-0.5,0.1c0-0.1,0.3,0,0.1-0.1l-0.4,0c0,0,0.1-0.1,0.2-0.1c-1.1-0.1-1.6-0.4-2.6-0.3
							c-0.1-0.1,0.1,0,0.2-0.1c-0.7,0.1-1-0.1-1.6-0.1l0,0.1c-0.8-0.2-1.8-0.1-2.8-0.1l0.1,0c-0.1,0.1-0.3,0.1-0.5,0.1
							c0,0,0.1-0.1-0.2-0.1c0.1,0,0.2,0,0.1,0.1c-0.8-0.1-2.5-0.1-3.8-0.2c-1.8,0-3.7-0.1-5.5,0c0.3,0,0.2,0.1,0,0.1
							c-0.6-0.2-1,0-1.5-0.1c-1,0.1-1.9-0.1-2.9,0l0-0.1c-0.1,0-0.2,0-0.3,0l0,0c-0.4,0-0.8,0-1,0l0,0.1c-0.2,0-0.1-0.1-0.3,0l0,0
							l-0.3,0.1c0-0.1-0.6,0-0.8-0.1c-0.3,0-0.8,0.1-1.2,0.1c-0.1-0.1-0.6-0.1-0.9-0.1c-0.6,0-1.5,0-2.3,0l0,0.1l-0.2,0c0,0,0,0,0,0
							c-0.2-0.1-0.5,0-0.7,0c0.1,0.1,0.1,0,0.3,0c0.2,0,0,0.1-0.2,0.1l0,0l-0.2,0c0-0.1-0.2-0.1-0.2-0.2c-0.7,0-1.2,0.1-1.9,0.1
							c0.1-0.1-0.5,0-0.4-0.1c-0.4,0,0.1,0.1-0.1,0.2c-0.1,0-0.2,0-0.3,0c0.1,0-0.1-0.1,0-0.1l-0.3,0c0,0,0,0,0.1,0
							c-0.6,0.1-1-0.1-1.5,0c0,0,0.2,0,0.2,0.1c-0.5,0.1-0.5-0.1-1,0l0.1-0.1c-0.1,0-0.1,0-0.2,0.1c0,0-0.1,0-0.1,0c0,0,0,0,0,0
							c0-0.1,0-0.1,0.2-0.1c0,0-0.1,0-0.2,0c0,0,0,0,0,0c0,0,0,0,0,0.1c0,0,0,0,0-0.1c0,0,0,0,0,0.1c0,0,0,0,0,0l0,0c0,0,0,0,0,0
							l0,0.2l0,0.1c0,0,0,0,0,0C105.9,69.1,105.9,69.1,106,69.1c-0.1-0.2-0.1-0.2-0.1-0.3C106,68.5,106,69.3,106,69.1z"/>
						<path d="M123.5,68.7l-0.1,0c0,0,0,0-0.1,0.1L123.5,68.7z"/>
						<path d="M116.7,68.7C116.7,68.7,116.7,68.7,116.7,68.7C116.7,68.7,116.7,68.7,116.7,68.7z"/>
						<path d="M115.1,68.8C115.2,68.8,115.1,68.8,115.1,68.8C115,68.8,115,68.8,115.1,68.8z"/>
						<path d="M127.4,68.6C127.3,68.6,127.3,68.6,127.4,68.6C127.4,68.6,127.4,68.6,127.4,68.6z"/>
						<path d="M138,68.6C138,68.6,138,68.6,138,68.6C138,68.6,138,68.6,138,68.6z"/>
						<path d="M137.4,68.5c0,0-0.1,0-0.1,0C137.4,68.5,137.4,68.5,137.4,68.5z"/>
						<path d="M124.8,68.6c0,0-0.1,0-0.1,0C124.7,68.6,124.8,68.6,124.8,68.6z"/>
						<path d="M137.2,68.5l-0.1,0c0,0,0,0,0,0L137.2,68.5z"/>
						<path d="M138.2,68.6c-0.1,0-0.1,0-0.2,0C138.1,68.6,138.2,68.6,138.2,68.6z"/>
						<path d="M131.3,68.5L131.3,68.5C131.1,68.5,131.2,68.5,131.3,68.5z"/>
						<polygon points="136.5,68.6 136.5,68.6 136.5,68.7 						"/>
						<path d="M138.9,68.6C138.8,68.6,138.8,68.7,138.9,68.6C138.8,68.7,138.8,68.7,138.9,68.6C138.9,68.7,138.9,68.7,138.9,68.6z"
							/>
						<path d="M133.5,68.6C133.6,68.6,133.6,68.5,133.5,68.6C133.5,68.5,133.5,68.5,133.5,68.6z"/>
					</g>
				</g>
			</g>
		</g>
	</g>
</g>
<g>
	<g>
		<path class="st3" d="M63.3,23c-3.5-4.9-4.5-6.1-10.5-5.1c-1-2.2-6.5-3.4-9.2-0.4c-0.5,0.5-1.2-3.6-7.8-3.6c-3.4,0-8,4-8,6.2
			c0,0.3,0,0.5,0.1,0.7c-3.4-0.5-3.3,1.3-3.1,2.2c-9.4,3.3-5.1,14.2,2.4,11.3c3.3,2.3,6.9,3.3,13,1.6c1.8,1.6,3.9,5.3,8.2,4.6
			c2.8-0.5,4.5-2.2,5.5-3.5c1.5,0.3,6.6-1.8,9-4.9c7.5,2.2,13.4-4,13.4-4s-5.4,2-6.2,0C69.1,25.5,67.6,22.5,63.3,23z"/>
	</g>
	<g>
		<path d="M43,17.8c1.5-1.3,3.4-2.5,5.6-2.5c1.1-0.1,2.2,0.3,3.1,0.9c0.9,0.6,1.6,1.5,2.1,2.5c0.5,1,0.7,2.1,0.6,3.2
			c-0.1,0.6-0.2,1.1-0.5,1.6c-0.3,0.5-0.8,0.9-1.3,1.1c-0.5,0.2-1,0.4-1.6,0.5c-0.6,0-1.2-0.2-1.6-0.5c-0.4-0.4-0.7-0.9-0.8-1.4
			c-0.1-0.3-0.1-0.5-0.1-0.8c0-0.2,0-0.6,0.2-0.7c-0.2,0.2-0.1,0.5-0.1,0.7c0,0.2,0.1,0.5,0.2,0.7c0.2,0.4,0.5,0.9,0.9,1.1
			c0.7,0.5,1.7,0.3,2.5-0.2c0.8-0.4,1.2-1.2,1.2-2.2c0.1-0.9-0.2-1.9-0.6-2.7c-0.8-1.7-2.5-2.9-4.4-3C46.7,16,44.7,16.8,43,17.8z"/>
	</g>
	<g>
		<path d="M45.9,40.6c-0.9-0.3-1.9-0.6-2.8-1.2c-0.9-0.5-1.6-1.3-2.2-2.2c-1.1-1.8-1.5-3.9-1.1-6c0.2-1,0.7-2.1,1.7-2.8
			c0.9-0.7,2.2-0.8,3.2-0.5c0.5,0.1,1,0.3,1.5,0.6c0.4,0.3,0.9,0.7,1,1.3c0.1,0.6-0.2,1.1-0.5,1.5c-0.2,0.2-0.4,0.4-0.6,0.5
			c-0.2,0.1-0.5,0.3-0.7,0.2c0.2,0.1,0.4-0.2,0.6-0.3c0.2-0.2,0.3-0.4,0.5-0.6c0.2-0.4,0.4-0.9,0.3-1.3c-0.1-0.4-0.5-0.7-0.9-0.9
			c-0.4-0.2-0.9-0.3-1.3-0.4c-0.9-0.2-1.8,0-2.5,0.5c-0.7,0.5-1.1,1.4-1.3,2.2c-0.4,1.8,0,3.8,0.8,5.4c0.4,0.8,1,1.6,1.8,2.2
			C44.1,39.7,45,40.1,45.9,40.6z"/>
	</g>
	<g>
		<path d="M66.8,22.8c-0.8,0.3-1.5,0.6-2.3,0.8c-0.7,0.3-1.4,0.5-1.7,1.1c-0.2,0.3-0.3,0.6-0.3,0.9c0,0.3,0.1,0.5,0.3,0.7
			c0.5,0.4,1.3,0.6,2.1,0.3c-0.6,0.6-1.6,0.8-2.5,0.3c-0.5-0.2-0.8-0.8-0.8-1.3c0-0.6,0.2-1,0.4-1.4c0.2-0.4,0.7-0.8,1.1-1
			c0.4-0.2,0.8-0.3,1.3-0.3C65.2,22.7,66,22.7,66.8,22.8z"/>
	</g>
	<g>
		<path d="M24.8,23c-0.1-0.4-0.2-0.7-0.2-1.1c0-0.4,0.2-0.9,0.5-1.1c0.4-0.3,0.8-0.4,1.1-0.5c0.4-0.1,0.8-0.1,1.2-0.1
			c0.8,0,1.7,0.5,2.2,1.3c0.2,0.4,0.3,0.9,0.2,1.3c-0.1,0.4-0.4,0.8-0.8,1c0.3-0.8,0.2-1.3-0.2-1.8c-0.4-0.4-0.9-0.8-1.6-0.9
			c-0.3-0.1-0.7-0.1-1-0.1c-0.3,0-0.7,0.1-1,0.2c-0.3,0.1-0.5,0.4-0.5,0.7C24.8,22.3,24.9,22.7,24.8,23z"/>
	</g>
	<g>
		<path d="M32.5,36.6c-1.2-0.3-2.4-0.5-3.5-1c-1.1-0.5-2.3-1.2-2.8-2.5c-0.3-0.6-0.5-1.3-0.3-2.1c0.2-0.7,0.7-1.3,1.4-1.6
			c0.6-0.3,1.5-0.4,2.1,0c0.3,0.2,0.5,0.6,0.6,0.9c0.1,0.3,0,0.7-0.1,1c-0.1-0.6-0.4-1.2-0.8-1.3c-0.4-0.1-0.9,0-1.4,0.2
			c-0.9,0.5-1.3,1.5-0.9,2.6c0.4,1,1.3,1.8,2.4,2.4C30.2,35.8,31.4,36.1,32.5,36.6z"/>
	</g>
</g>
<g>
	<g>
		<path class="st3" d="M222.5,22.4c-4.2,0.2-6.9,1.3-7.8,1.5c-3.7-4.6-4.6-5.7-10.9-4.8c-1-2.1-6.7-3.2-9.5-0.4
			c-0.5,0.5-1.2-3.4-8.1-3.4c-3.5,0-8.2,3.7-8.2,5.8c0,0.2,0,0.5,0.1,0.7c-3.5-0.5-3.4,1.2-3.2,2.1c-9.7,3.1-11.9-4-11.9-4
			s3.1,12.2,10.8,9.6c2.3,3.6,6.2,8.5,17.1,6.5c1.9,1.5,3.2,5,10.4,4.5c3.6-0.3,6.2-3,7.1-5.4c1.6,0.2,3.5,0.3,6-2.5
			c3.5,0.6,5.2-3.4,6.5-3.4c14.9-0.1,14.8-8.2,14.8-8.2s-0.2,1.8-2.1,2.6C231.1,24.5,226.9,22.2,222.5,22.4z"/>
	</g>
	<g>
		<path d="M193.7,19c1.6-1.2,3.4-2.3,5.6-2.4c1.1-0.1,2.2,0.1,3.1,0.7c1,0.5,1.8,1.3,2.3,2.2c0.5,0.9,0.8,2,0.8,3.2
			c0,0.6-0.2,1.1-0.5,1.6c-0.3,0.5-0.9,0.9-1.3,1.1c-0.5,0.2-1,0.4-1.6,0.4c-0.6,0-1.2-0.1-1.6-0.4c-0.5-0.3-0.7-0.8-0.9-1.3
			c-0.1-0.3-0.1-0.5-0.1-0.8c0-0.2,0-0.6,0.2-0.7c-0.2,0.2-0.1,0.5-0.1,0.7c0,0.2,0.1,0.5,0.2,0.7c0.2,0.4,0.5,0.8,0.9,1
			c0.8,0.4,1.7,0.2,2.6-0.3c0.8-0.4,1.2-1.2,1.3-2.1c0-0.9-0.2-1.8-0.7-2.6c-0.9-1.6-2.7-2.6-4.6-2.6
			C197.4,17.3,195.5,18.1,193.7,19z"/>
	</g>
	<g>
		<path d="M197.4,40.3c-1-0.3-1.9-0.5-2.9-0.9c-0.9-0.4-1.9-0.9-2.6-1.7c-1.4-1.6-1.9-3.8-1.5-6c0.2-1,0.8-2.1,1.7-2.8
			c1-0.6,2.2-0.8,3.2-0.5c0.5,0.1,1,0.3,1.5,0.5c0.5,0.3,1,0.6,1.2,1.2c0.2,0.6-0.1,1.2-0.5,1.5c-0.2,0.2-0.4,0.4-0.6,0.5
			c-0.2,0.1-0.5,0.3-0.7,0.2c0.2,0,0.5-0.1,0.6-0.3c0.2-0.2,0.3-0.3,0.5-0.5c0.3-0.4,0.4-0.9,0.2-1.2c-0.4-0.7-1.4-1-2.3-1.1
			c-0.9-0.1-1.8,0-2.5,0.5c-0.7,0.5-1.1,1.3-1.3,2.2c-0.4,1.8,0.1,3.8,1.2,5.3C193.7,38.7,195.6,39.4,197.4,40.3z"/>
	</g>
	<g>
		<path d="M218,23c-0.7,0.4-1.5,0.7-2.2,1.1c-0.7,0.3-1.4,0.7-1.6,1.2c-0.1,0.3-0.2,0.6-0.2,0.9c0,0.2,0.2,0.4,0.4,0.6
			c0.6,0.3,1.4,0.3,2.2,0.1c-0.6,0.6-1.5,0.9-2.5,0.7c-0.5-0.1-1-0.6-1.1-1.2c-0.1-0.3,0-0.5,0-0.8c0.1-0.2,0.1-0.5,0.2-0.7
			c0.2-0.5,0.7-0.8,1-1c0.4-0.2,0.8-0.3,1.2-0.4C216.4,23.1,217.2,23,218,23z"/>
	</g>
	<g>
		<path d="M174.9,23.9c-0.1-0.4-0.2-0.7-0.2-1.1c0-0.4,0.3-0.8,0.6-1.1c0.8-0.4,1.5-0.4,2.3-0.5c0.8,0,1.7,0.4,2.2,1.1
			c0.3,0.4,0.4,0.9,0.3,1.3c-0.1,0.5-0.5,0.8-0.8,0.9c0.3-0.8,0.2-1.3-0.2-1.7c-0.4-0.4-1-0.7-1.6-0.8c-0.3-0.1-0.7-0.1-1-0.1
			c-0.3,0-0.7,0.1-1,0.2c-0.3,0.1-0.5,0.3-0.6,0.7C174.9,23.2,175,23.6,174.9,23.9z"/>
	</g>
</g>
<g>
	<path class="st1" d="M121.7,92.7c0-1.6,0.9-3.1,2.2-4.1c1.3-1,2.8-1.5,4.4-1.8c2.3-0.4,4.8-0.4,7.1,0.5c2.2,0.9,4.1,2.7,4.9,4.9
		c1.6-1.9,4.3-2.4,6.7-2.4c3.8,0,7.8,1.3,10.5,4c0.4,0.4,0.8,0.8,1,1.4c0.6,1.6-0.9,3.2-2.2,4.3c1,0.3,2,0.6,3,1
		c1.4,0.4,2.8,0.9,4.1,1.7c2.3,1.5,3.8,4.2,3.9,6.9c0.1,3.2-1.7,6.3-4.2,8.3c-2.5,2-5.7,3.1-8.8,3.6c-3.2,0.5-6.4,0.5-9.6,0.7
		c-0.3,0-0.6,0.1-0.7,0.3c-0.1,0.2,0,0.3,0,0.5c0.1,0.9-0.4,1.7-1.1,2.2c-0.7,0.5-1.6,0.6-2.5,0.7c-2,0.2-4.2-0.2-5.8-1.3
		c-1.6-1.2-2.6-3.4-2-5.3"/>
	<path d="M121.7,92.7c-0.1-2,1.3-3.9,3.1-5c1.8-1.1,3.8-1.5,5.9-1.7c2.1-0.2,4.2,0.3,6,1.3c1.8,1,3.4,2.6,4.1,4.7l-0.9-0.2
		c0.8-0.9,1.8-1.5,2.8-1.9c1.1-0.4,2.2-0.6,3.3-0.6c2.2-0.1,4.4,0.2,6.5,0.9c2.1,0.7,4.1,1.9,5.6,3.5c0.4,0.4,0.8,1,0.9,1.6
		c0.1,0.6,0,1.3-0.3,1.9c-0.5,1.1-1.4,1.9-2.2,2.6l-0.2-0.9l3.8,1.2c1.3,0.4,2.6,0.9,3.7,1.7c2.3,1.6,3.7,4.3,3.8,7.2
		c0,2.8-1.2,5.5-3.1,7.5c-1.9,2-4.4,3.3-7,4.1c-2.6,0.8-5.3,1.1-7.9,1.2c-1.3,0.1-2.6,0.1-4,0.2l-1,0c-0.2,0-0.3,0-0.4,0
		c-0.1,0,0,0,0,0c0-0.1,0.1,0.5,0,0.9c-0.1,0.4-0.2,0.8-0.4,1.1c-0.4,0.7-1.1,1.1-1.8,1.3c-0.7,0.2-1.4,0.3-2.1,0.3
		c-1.4,0-2.7-0.1-4-0.7c-1.3-0.5-2.4-1.4-3.1-2.6c-0.7-1.2-0.9-2.6-0.5-3.9c-0.3,1.3,0,2.7,0.7,3.7c0.7,1.1,1.8,1.8,3,2.2
		c1.2,0.4,2.5,0.5,3.8,0.4c1.3-0.1,2.5-0.5,3.1-1.3c0.2-0.2,0.3-0.5,0.3-0.7c0-0.1,0-0.2,0-0.4c0-0.1-0.1-0.4,0-0.7
		c0.1-0.4,0.5-0.6,0.7-0.6c0.2-0.1,0.4,0,0.6-0.1l1,0c1.3-0.1,2.6-0.1,3.9-0.2c2.6-0.1,5.2-0.4,7.7-1.2c2.5-0.7,4.8-2,6.5-3.8
		c1.7-1.8,2.9-4.3,2.8-6.8c-0.1-2.5-1.3-4.9-3.3-6.4c-1-0.7-2.2-1.2-3.4-1.6l-3.8-1.2l-0.9-0.3L156,99c0.8-0.7,1.5-1.4,1.9-2.3
		c0.4-0.9,0.2-1.7-0.5-2.4c-1.4-1.5-3.2-2.6-5.2-3.2c-2-0.7-4.1-1-6.1-0.9c-2,0.1-4.2,0.7-5.4,2.2l-0.6,0.7l-0.3-0.8
		c-0.6-1.8-2-3.2-3.6-4.1c-1.7-0.9-3.6-1.2-5.5-1.3c-1.9,0-3.9,0.3-5.7,1.2C123.3,89,121.9,90.6,121.7,92.7z"/>
</g>
<g>
	<path class="st1" d="M89.7,105.2c-2.4-0.4-4.2-2.9-3.9-5.2c0.3-2.4,2.7-4.3,5.1-4.1c-1.1-2.7,0.1-6,2.3-7.8
		c2.3-1.8,5.4-2.4,8.3-2.1c0.7,0.1,1.5,0.2,2.2-0.1c0.4-0.2,0.7-0.5,1.1-0.8c3.4-2.8,8.4-3.3,12.7-2.3c3.4,0.8,6.8,2.7,8.4,5.8
		c1.6,3.1,0.8,7.6-2.3,9.2c1.2,0.1,0.2-1.7,5.2-1.7c3.9,0,4.4,0.8,6.2,1.6s2.7,3.5,1.2,4.7c2.7,0.4,5,2.6,5.5,5.3
		c0.6,2.6-0.6,5.6-2.9,7c-0.5,0.4-1.2,0.7-1.5,1.2c-0.4,0.7-0.2,1.5-0.2,2.2c-0.2,2.8-3.7,4-6.4,4c-3.6,0-7.4-1.1-9.3-4.2
		c-5.4,3.5-11.2,6.8-17.6,7.9c-6.4,1.1-13.6-0.6-17.6-5.6c-0.9-1.2-1.8-2.5-3.1-3.1c-1.3-0.6-2.9-0.3-4.2,0.2
		c-3.7,1.2-7,3.4-10.6,4.9c-4.8,2.1-10.3,3-15.4,1.8s-9.7-5.1-11.2-10.2c2.5,2.6,5.3,4.9,8.5,6.3c3.3,1.4,7,2,10.4,0.9
		c5.3-1.6,8.9-6.6,13.5-9.8c4.9-3.3,11.1-4.6,16.8-3.4c-0.6-0.7-0.9-1.6-1.1-2.5"/>
	<path d="M89.7,105.2c-2.4-0.4-4.3-2.8-4-5.3c0.3-2.5,2.7-4.4,5.2-4.3l-0.2,0.3c-1-2.2-0.4-4.9,1-6.8c1.4-2,3.8-3.1,6.1-3.5
		c1.2-0.2,2.4-0.3,3.5-0.2c0.6,0,1.1,0.1,1.6,0c0.5-0.1,0.8-0.3,1.3-0.7c1.8-1.6,4.1-2.5,6.5-2.9c2.4-0.4,4.8-0.2,7,0.4
		c2.3,0.6,4.5,1.6,6.3,3.2c0.9,0.8,1.7,1.8,2.2,2.9c0.5,1.1,0.8,2.3,0.8,3.6c0,1.2-0.2,2.5-0.8,3.6c-0.5,1.1-1.4,2.1-2.5,2.7
		l-0.2-0.9c0.1,0,0.1,0,0.2,0c0.1,0,0.2-0.2,0.3-0.4c0.3-0.3,0.7-0.6,1.1-0.8c0.8-0.4,1.6-0.5,2.3-0.5c1.5-0.1,3.1-0.1,4.6,0.3
		c0.8,0.2,1.5,0.5,2.2,0.9l1,0.5c0.4,0.2,0.7,0.5,1,0.8c0.6,0.6,1,1.4,1.1,2.3c0.1,0.8-0.1,1.9-0.9,2.5l-0.2-0.9
		c3.5,0.6,6.3,3.9,6.1,7.5c-0.1,1.8-0.9,3.4-2.1,4.7c-0.6,0.6-1.4,1.1-2,1.5c-0.3,0.2-0.5,0.4-0.6,0.7c-0.1,0.3-0.1,0.7-0.1,1.1
		c0,0.4,0,0.9-0.1,1.3c-0.1,0.5-0.3,0.9-0.6,1.3c-0.5,0.8-1.3,1.3-2.1,1.7c-1.6,0.8-3.3,1-5,0.9c-1.7-0.1-3.4-0.4-4.9-1.1
		c-1.6-0.7-3-1.8-3.9-3.3l0.7,0.2c-3.2,2.1-6.5,4-10,5.6c-3.5,1.5-7.3,2.6-11.2,2.7c-3.9,0.1-7.8-0.8-11.1-2.9c-1.6-1-3.1-2.5-4.2-4
		c-0.6-0.7-1.1-1.5-1.8-1.9c-0.7-0.5-1.5-0.6-2.4-0.5c-0.9,0.1-1.7,0.3-2.6,0.7c-0.9,0.3-1.7,0.7-2.6,1.1c-1.7,0.8-3.4,1.7-5.1,2.5
		c-3.4,1.7-7.1,3-11,3.4c-3.8,0.4-7.9-0.3-11.3-2.2c-3.4-1.9-6.2-5-7.3-8.8l-0.5-1.9l1.4,1.4c3.2,3.3,6.9,6.2,11.4,7.2
		c2.2,0.5,4.5,0.6,6.7,0c2.2-0.6,4.1-1.8,5.9-3.2c1.8-1.4,3.5-3,5.3-4.5c1.8-1.5,3.8-2.9,5.9-3.8c4.3-1.9,9.2-2.4,13.7-1.4l0,0.1
		c-0.6-0.7-0.9-1.6-1.1-2.5c0.2,0.9,0.6,1.7,1.2,2.4l0.1,0.1l-0.1,0c-4.6-0.9-9.4-0.2-13.5,1.7c-2.1,1-4,2.3-5.7,3.9
		c-1.7,1.5-3.4,3.2-5.2,4.7c-0.9,0.7-1.9,1.4-2.9,2.1c-1,0.6-2.2,1.1-3.3,1.4c-2.4,0.6-4.8,0.5-7.2,0c-4.7-1.1-8.6-4.1-11.9-7.5
		l0.8-0.5c1,3.5,3.6,6.4,6.8,8.2c3.2,1.8,7,2.4,10.7,2.1c3.7-0.3,7.3-1.6,10.6-3.3c1.7-0.8,3.4-1.7,5.1-2.5c0.9-0.4,1.8-0.8,2.7-1.1
		c0.9-0.3,1.9-0.6,2.9-0.7c1-0.1,2.1,0.1,3,0.7c0.9,0.6,1.5,1.4,2.1,2.2c1.1,1.5,2.4,2.8,4,3.8c3.1,2,6.9,2.8,10.6,2.8
		c3.7-0.1,7.4-1.1,10.8-2.6c3.4-1.5,6.7-3.5,9.8-5.5l0.4-0.3l0.3,0.4c0.8,1.3,2.1,2.3,3.5,2.9c1.4,0.6,3,0.9,4.6,1
		c1.6,0.1,3.2-0.1,4.5-0.8c1.4-0.6,2.4-1.8,2.2-3.4c0-0.4,0-0.9,0.1-1.4c0.1-0.5,0.5-0.9,0.9-1.2c0.8-0.5,1.4-0.8,1.9-1.4
		c1-1.1,1.7-2.6,1.8-4.1c0.3-3-2.2-6-5.2-6.5l-1.1-0.2l0.8-0.7c0.9-0.8,0.6-2.4-0.3-3.3c-0.2-0.2-0.5-0.4-0.7-0.6l-1-0.5
		c-0.7-0.4-1.3-0.6-1.9-0.8c-1.4-0.3-2.9-0.3-4.3-0.2c-0.7,0.1-1.4,0.2-2,0.4c-0.3,0.1-0.5,0.3-0.7,0.5c-0.1,0.1-0.2,0.3-0.4,0.5
		c-0.2,0.2-0.6,0.3-0.9,0.3l-1.8-0.1l1.6-0.8c1.9-1,2.9-3.2,2.8-5.4c0-1.1-0.3-2.2-0.7-3.1c-0.5-1-1.2-1.8-2-2.6
		c-1.6-1.5-3.7-2.4-5.9-3c-2.2-0.5-4.4-0.7-6.6-0.4c-2.2,0.3-4.3,1.2-6,2.6c-0.2,0.2-0.5,0.4-0.8,0.6c-0.3,0.2-0.7,0.3-1,0.3
		c-0.7,0.1-1.3,0-1.8-0.1c-1.1-0.1-2.2-0.1-3.3,0.1c-2.2,0.3-4.4,1.3-5.7,3c-1.4,1.7-2,4.2-1.1,6.2l0.1,0.3l-0.3,0
		c-2.3-0.2-4.6,1.6-5,3.9C85.6,102.3,87.3,104.7,89.7,105.2z"/>
</g>
<g>
	<path d="M43.3,115.9c2.1,2.6,4.9,4.6,8,5.6c1.6,0.5,3.2,0.8,4.8,0.9c0.8,0.1,1.6,0.1,2.4,0c0.8-0.1,1.6-0.2,2.4-0.3
		c3.2-0.6,6.2-2.1,9.1-3.7c2.9-1.6,5.7-3.5,8.7-5c1.5-0.8,3-1.5,4.7-1.9c0.9-0.2,1.8-0.3,2.7-0.2c0.9,0.1,1.8,0.5,2.5,1
		c1.5,1,2.6,2.3,3.9,3.2c1.3,0.9,2.8,1.6,4.4,1.9c3.2,0.8,6.5,0.5,9.7-0.3c3.1-0.9,6.2-2.3,8.4-4.7l0.4,0.8c-1.6,0-3.2-0.2-4.8-0.7
		c-1.5-0.5-3.1-1.1-4.3-2.3c-1.3-1.1-2.1-2.8-1.9-4.6c0.1-0.9,0.5-1.7,1.1-2.4c0.5-0.7,1.2-1.2,2-1.6c1.5-0.8,3.4-1.1,5-0.2
		c0.8,0.5,1.4,1.1,1.7,1.9c0.4,0.8,0.4,1.8,0.1,2.6c-0.4,0.8-1,1.4-1.8,1.8c-0.8,0.3-1.8,0.3-2.5-0.3c-0.3-0.3-0.6-0.6-0.7-1
		c-0.1-0.4-0.1-0.9,0.2-1.2c0.3-0.3,0.8-0.4,1.2-0.3c0.4,0.1,0.8,0.4,0.7,0.8c0-0.4-0.4-0.7-0.8-0.7c-0.4,0-0.8,0.1-1,0.4
		c-0.4,0.6,0,1.5,0.6,1.9c0.6,0.4,1.4,0.4,2,0.1c0.7-0.3,1.2-0.9,1.4-1.5c0.2-0.6,0.1-1.4-0.2-2c-0.3-0.6-0.9-1.1-1.5-1.4
		c-1.2-0.6-2.8-0.5-4,0.2c-1.2,0.7-2.4,1.9-2.5,3.2c-0.2,1.4,0.5,2.8,1.6,3.8c1.1,1,2.5,1.6,4,2.1c1.5,0.4,3,0.7,4.5,0.7l1.1,0
		l-0.7,0.8c-2.3,2.7-5.6,4.1-8.8,5c-3.3,0.9-6.8,1.2-10.2,0.4c-1.7-0.4-3.3-1.1-4.7-2.1c-1.4-1-2.5-2.3-3.9-3.2
		c-0.7-0.4-1.4-0.7-2.1-0.8c-0.7-0.1-1.5,0-2.3,0.2c-1.5,0.4-3,1.1-4.5,1.9c-2.9,1.5-5.8,3.3-8.7,5c-2.9,1.6-6,3.2-9.4,3.8
		c-1.7,0.3-3.4,0.5-5.1,0.3c-1.7-0.2-3.4-0.6-5-1.3C47.9,120.9,45.1,118.7,43.3,115.9z"/>
</g>
<g>
	<path d="M100.4,85.5c1.6,0.5,3.1,0,4.8,0c1.7,0.2,3.4,0.8,4.6,2.1c1.2,1.3,1.8,3.2,1.4,4.9c-0.3,1.7-1.5,3.3-3.1,4.1
		c-0.8,0.4-1.6,0.7-2.4,0.9c-0.8,0.2-1.7,0.3-2.6,0.3c-0.9-0.1-1.8-0.3-2.5-0.9c-0.7-0.5-1.3-1.4-1.4-2.3c-0.1-1,0.2-1.9,0.8-2.6
		c0.6-0.7,1.3-1.3,2.2-1.5c0.9-0.2,2,0,2.6,0.7c0.3,0.4,0.5,0.8,0.5,1.2c0,0.4-0.1,0.9-0.5,1.2c0.5-0.7,0.1-1.6-0.4-2
		c-0.6-0.4-1.3-0.4-2-0.1c-1.3,0.4-2.5,1.7-2.3,3.1c0.1,0.6,0.5,1.2,1,1.7c0.6,0.4,1.3,0.6,2,0.7c0.7,0,1.5-0.1,2.2-0.3
		c0.8-0.2,1.5-0.4,2.2-0.8c1.3-0.7,2.3-1.9,2.6-3.4c0.3-1.4-0.2-3-1.2-4.1c-1-1.1-2.5-1.6-4-1.8c-0.8-0.2-1.5-0.2-2.4-0.3
		C101.9,86.1,101.1,85.9,100.4,85.5z"/>
</g>
<g>
	<path d="M136.3,102.5c-0.8,1.1-2.1,1.9-3.4,2.4c-1.3,0.4-2.7,0.7-3.9,1.2c-1.2,0.4-2.4,1.1-3,2.1c-0.6,1-0.6,2.4,0,3.4
		c0.5,1.1,1.7,1.7,2.9,1.8c1.2,0.1,2.5-0.3,3.2-1.3c0.7-0.9,0.3-2.3-0.7-2.8c-0.8-0.7-2.5-0.5-3.2,0.7c0.4-1.3,2.2-2.3,3.7-1.6
		c1.4,0.8,2,2.9,1,4.3c-2,2.6-6.3,2.1-7.8-0.6c-0.7-1.3-0.8-3.1,0.1-4.4c0.9-1.3,2.3-2,3.6-2.5c1.3-0.5,2.7-0.8,3.9-1.2
		C133.9,103.7,135.1,103.3,136.3,102.5z"/>
</g>
<g>
	<path d="M89.4,104.9c0.5-0.2,1.1-0.3,1.5-0.5c0.5,0,0.9-0.1,1.3-0.3c0.8-0.4,1.3-1.2,1.5-2.1c0.1-0.4,0-0.9-0.1-1.3
		c-0.2-0.4-0.4-0.5-0.7-0.5c-0.4,0-0.7,0.2-0.9,0.6c-0.4,0.3-0.7,0.7-1,1.2c-0.1-0.5-0.1-1.1,0.1-1.7c0.3-0.5,1-1,1.7-1
		c0.3,0,0.7,0,1.1,0.2c0.3,0.2,0.5,0.5,0.7,0.8c0.2,0.6,0.3,1.2,0.2,1.8c-0.2,1.2-0.9,2.3-2,2.8c-0.5,0.3-1.1,0.4-1.7,0.5
		C90.5,105.3,89.9,105.1,89.4,104.9z"/>
</g>
<g>
	<path d="M114.7,113.2c-1.6,0.3-3.3,0.4-5,0.1c-0.8-0.1-1.7-0.3-2.5-0.7c-0.8-0.3-1.6-0.8-2.3-1.3c-1.4-1-2.6-2.4-3.3-3.9
		c-0.7-1.6-1.1-3.4-0.6-5.2c0.2-0.9,0.7-1.7,1.3-2.4c0.6-0.7,1.3-1.2,2.1-1.6c1.5-0.9,3.1-1.4,4.8-1.7c1.7-0.3,3.5-0.3,5.2,0.4
		c1.6,0.7,3,2.4,3,4.3l-1,0c-0.1-1,0-1.9,0.4-2.9c0.3-0.9,0.9-1.9,1.8-2.3c0.9-0.5,2.1-0.5,2.9-0.1c0.9,0.4,1.5,1.1,2.1,1.8
		c-0.7-0.6-1.4-1.1-2.3-1.4c-0.8-0.3-1.7-0.1-2.3,0.4c-0.2,0.1-0.3,0.3-0.4,0.4c-0.1,0.2-0.2,0.3-0.4,0.5c-0.2,0.3-0.4,0.7-0.6,1.1
		c-0.3,0.8-0.4,1.6-0.3,2.5l-1,0c0.1-1.4-1-2.8-2.4-3.4c-1.4-0.6-3-0.6-4.6-0.3c-1.6,0.3-3.1,0.8-4.5,1.6c-1.4,0.8-2.6,1.9-2.9,3.4
		c-0.4,1.5-0.1,3.1,0.6,4.5c0.7,1.4,1.7,2.6,3,3.6c0.6,0.5,1.3,0.9,2.1,1.2c0.7,0.3,1.5,0.6,2.3,0.8
		C111.4,113,113,113.2,114.7,113.2z"/>
</g>
<g>
	<path d="M161.1,100.9c-0.9-0.4-1.8-0.5-2.8-0.6c-0.9-0.1-1.9-0.1-2.8-0.1c-0.5,0-0.9,0.1-1.3,0.2c-0.4,0.1-0.8,0.3-1.2,0.5
		c-0.8,0.4-1.6,0.9-2.3,1.5c-1.4,1.2-2.5,2.8-3.1,4.5c-0.3,0.9-0.5,1.8-0.5,2.7c0,0.9,0.1,1.8,0.5,2.6c0.7,1.6,2.7,2.2,4.3,1.6
		c1.6-0.6,2.8-2.1,3.3-3.9c0.2-0.9,0.4-1.8,0.1-2.4c-0.5-0.6-1.3-1.2-2-1.2c-0.2,0-0.3,0-0.5,0c-0.2,0.1-0.4,0.2-0.5,0.3
		c-0.3,0.2-0.6,0.6-0.7,1c-0.2,0.8,0.1,1.8,0.6,2.6c-0.6-0.7-1.2-1.6-1.1-2.7c0-0.5,0.3-1.1,0.7-1.5c0.2-0.2,0.4-0.4,0.7-0.5
		c0.3-0.2,0.6-0.2,0.9-0.2c0.6,0,1.1,0.3,1.6,0.6c0.5,0.3,0.8,0.6,1.2,1.1c0.4,0.5,0.4,1.2,0.4,1.7c-0.1,0.5-0.2,1-0.3,1.5
		c-0.6,1.9-1.9,3.8-3.9,4.5c-1,0.3-2.1,0.3-3.1,0c-1-0.3-1.9-1.1-2.4-2.1c-0.5-1-0.6-2-0.6-3c0-1,0.2-2,0.6-3
		c0.7-1.9,1.9-3.6,3.4-4.9c0.8-0.7,1.6-1.2,2.5-1.7c0.5-0.2,0.9-0.4,1.4-0.6c0.5-0.2,1.1-0.1,1.6-0.1c1,0.1,2,0.2,2.9,0.5
		C159.3,100,160.2,100.4,161.1,100.9z"/>
</g>
<g>
	<path d="M140,92.2c0.4,0.7,0.4,1.5,0.1,2.3c-0.4,0.7-1,1.3-1.8,1.7c-0.7,0.4-1.7,0.4-2.4,0.2c-0.8-0.2-1.4-0.5-2.1-0.9
		c-0.6-0.4-1.3-0.8-1.8-1.4c-0.3-0.3-0.5-0.8-0.5-1.3c0-0.5,0.2-1,0.6-1.3c0.3-0.3,0.8-0.5,1.3-0.5c0.5,0,0.9,0.2,1.3,0.4
		c0.7,0.7,0.8,1.7,0.3,2.3c0-0.7-0.4-1.3-0.9-1.5c-0.4-0.3-1-0.3-1.3,0c-0.4,0.3-0.4,0.8,0,1.3c0.4,0.4,1,0.8,1.6,1.2
		c1.2,0.6,2.5,1.2,3.6,0.7c0.5-0.3,1-0.7,1.3-1.2C139.7,93.6,140,93,140,92.2z"/>
</g>
</svg>
